<?xml version="1.0" standalone="no"?><!DOCTYPE svg PUBLIC "-//W3C//DTD SVG 1.1//EN" "http://www.w3.org/Graphics/SVG/1.1/DTD/svg11.dtd" ><svg xmlns="http://www.w3.org/2000/svg"><metadata></metadata><defs><font id="FontForge 2.0 : 经典超圆简 : 6-8-2018" horiz-adv-x="1024"><font-face font-family="" font-weight="400" font-stretch="normal" units-per-em="1024" panose-1="2 1 6 9 1 1 1 1 1 1" ascent="820" descent="-204" x-height="1" bbox="3 -198 1013 818" underline-thickness="50" underline-position="-204" unicode-range="U+4e00-9f50" /><missing-glyph horiz-adv-x="1024" d="M252 668 q44 0 44 -80 q0 -21 -2 -60 l-29 -356 l-26 0 l-29 356 q-2 39 -2 60 q0 80 44 80 l0 0 ZM252 80 q56 0 56 -56 q0 -56 -56 -56 q-56 0 -56 56 q0 56 56 56 l0 0 Z" /><glyph glyph-name="uni4E00" unicode="&#x4e00;" d="M84 411 q-27 0 -40 -20 q-12 -18 -12 -45 q0 -28 13 -49 q12 -21 39 -21 l852 0 q25 0 39 21 q12 18 12 45 q0 28 -13 49 q-12 19 -38 20 l-852 0 Z" /><glyph glyph-name="uni4E09" unicode="&#x4e09;" d="M148 719 q-27 0 -40 -20 q-12 -18 -12 -45 q0 -28 13 -49 q12 -21 39 -21 l736 0 q25 0 39 21 q12 18 12 45 q0 28 -13 49 q-12 19 -38 20 l-736 0 ZM200 375 q-27 0 -40 -20 q-12 -18 -12 -45 q0 -28 13 -49 q12 -21 39 -21 l628 0 q25 0 39 21 q12 18 12 45 q0 28 -13 49 q-12 19 -38 20 l-628 0 ZM88 19 q-27 0 -40 -20 q-12 -18 -12 -45 q0 -28 13 -49 q12 -21 39 -21 l856 0 q25 0 39 21 q12 18 12 45 q0 28 -13 49 q-12 19 -38 20 l-856 0 Z" /><glyph glyph-name="uni4E0A" unicode="&#x4e0a;" d="M395 748 l0 -755 l-311 0 q-28 0 -41 -21 q-13 -19 -13 -46 q0 -28 14 -51 q12 -21 40 -21 l860 0 q27 0 40 22 q13 19 13 46 q0 28 -14 51 q-12 19 -39 20 l-410 0 l0 365 l330 0 q27 0 40 22 q13 19 13 46 q0 28 -14 51 q-12 19 -39 20 l-330 0 l0 251 q0 28 -22 41 q-19 13 -46 13 q-28 0 -51 -14 q-19 -12 -20 -40 l0 0 Z" /><glyph glyph-name="uni4E0B" unicode="&#x4e0b;" d="M924 751 l-836 0 q-27 0 -40 -20 q-12 -18 -12 -45 q0 -28 13 -49 q12 -21 39 -21 l337 0 l0 -752 q0 -25 20 -39 q18 -12 45 -12 q28 0 49 13 q21 12 21 38 l0 752 l364 0 q25 0 39 21 q12 18 12 45 q0 28 -13 49 q-12 19 -38 20 ZM603 361 q81 -76 187 -225 q15 -22 39 -22 q22 0 45 16 q24 15 34 38 q10 21 -4 44 q-109 156 -209 248 q-19 19 -43 12 q-21 -4 -40 -25 q-18 -19 -23 -45 q-4 -22 14 -41 l0 0 Z" /><glyph glyph-name="uni4E0D" unicode="&#x4e0d;" d="M928 735 l-828 0 q-27 0 -40 -20 q-12 -18 -12 -45 q0 -28 13 -49 q12 -21 39 -21 l331 0 q-28 -42 -51 -74 q-37 -49 -89 -99 q-49 -49 -94 -80 q-52 -34 -147 -94 q-24 -13 -25 -37 q-1 -25 13 -51 q13 -24 34 -34 q21 -12 45 1 q66 34 139 90 q66 49 129 110 q15 15 30 31 l0 -499 q0 -27 21 -40 q19 -13 46 -13 q28 0 51 14 q21 12 21 39 l0 673 q22 34 40 63 l334 0 q25 0 39 21 q12 18 12 45 q0 28 -13 49 q-12 19 -38 20 ZM629 357 q103 -76 246 -238 q18 -21 42 -17 q22 3 44 21 q21 19 29 44 q7 22 -10 43 q-142 166 -266 258 q-22 16 -45 8 q-22 -7 -39 -30 q-16 -22 -20 -48 q-1 -24 19 -41 l0 0 Z" /><glyph glyph-name="uni4E0E" unicode="&#x4e0e;" d="M227 273 l554 0 q24 0 33 -7 q7 -6 8 -29 q-7 -79 -16 -153 q-7 -63 -21 -105 q-9 -16 -39 -19 q-24 -1 -81 1 q-61 4 -134 17 q-28 7 -46 -9 q-19 -19 -27 -47 q-7 -28 -1 -51 q7 -25 35 -32 q67 -13 166 -21 q93 -4 145 2 q57 7 87 39 q40 54 50 141 q7 72 30 301 q1 52 -25 78 q-27 28 -73 28 l-524 0 q-13 -1 -16 16 l23 89 l561 0 q25 0 39 21 q12 18 12 45 q0 28 -13 49 q-12 19 -38 20 l-526 0 l23 85 q6 25 -10 44 q-15 16 -42 22 q-25 7 -50 -1 q-22 -7 -29 -32 l-102 -406 q-9 -34 7 -61 q18 -24 40 -25 ZM136 183 q-27 0 -40 -20 q-12 -18 -12 -45 q0 -28 13 -49 q12 -21 39 -21 l516 0 q25 0 39 21 q12 18 12 45 q0 28 -13 49 q-12 19 -38 20 l-516 0 Z" /><glyph glyph-name="uni4E13" unicode="&#x4e13;" d="M377 368 l575 0 q25 0 39 21 q12 18 12 45 q0 28 -13 49 q-12 19 -38 20 l-509 0 l29 59 l388 0 q25 0 38 20 q12 18 12 44 q0 27 -13 48 q-12 19 -37 19 l-325 0 l14 28 q10 25 5 41 q-9 21 -43 37 q-27 12 -54 4 q-18 -4 -28 -30 l-39 -80 l-226 0 q-25 0 -39 -19 q-12 -18 -12 -44 q0 -27 13 -48 q12 -19 38 -20 l162 0 l-29 -59 l-229 0 q-27 0 -40 -20 q-12 -18 -12 -45 q0 -28 13 -49 q12 -21 39 -21 l164 0 l-27 -57 q-25 -58 3 -100 q22 -34 88 -39 l374 0 q22 0 14 -12 l-83 -140 q-126 58 -233 87 q-25 7 -43 -9 q-16 -15 -24 -41 q-7 -27 0 -51 q6 -22 32 -30 q144 -40 365 -154 q22 -13 44 -1 q19 10 33 34 q13 24 13 50 q-1 22 -25 36 q-19 10 -39 19 l126 223 q21 39 -1 81 q-21 42 -83 43 l-393 0 q-19 10 -20 9 l24 52 Z" /><glyph glyph-name="uni4E2A" unicode="&#x4e2a;" d="M284 621 q-82 -61 -230 -125 q-25 -12 -27 -36 q-3 -25 9 -51 q12 -25 31 -37 q21 -13 46 -3 q88 40 195 119 q79 64 123 116 q43 54 77 54 q34 0 78 -48 q37 -43 151 -125 q93 -64 166 -96 q25 -10 45 3 q21 15 33 41 q10 25 7 48 q-4 24 -28 35 q-145 58 -224 116 q-82 61 -125 111 q-48 54 -103 54 q-55 1 -96 -55 q-43 -55 -128 -121 ZM582 436 q0 28 -22 41 q-19 13 -46 13 q-28 0 -51 -14 q-19 -12 -20 -40 l0 -564 q0 -27 21 -40 q19 -13 46 -13 q28 0 51 14 q21 12 21 39 l0 564 Z" /><glyph glyph-name="uni4E2D" unicode="&#x4e2d;" d="M79 534 l0 -332 q-1 -49 16 -70 q21 -22 65 -24 l279 0 l0 -240 q0 -27 21 -40 q19 -13 46 -13 q28 0 51 14 q21 12 21 39 l0 240 l267 0 q49 1 71 25 q22 22 22 69 l0 332 q-1 46 -26 65 q-25 16 -67 16 l-267 0 l0 133 q0 28 -22 41 q-19 13 -46 13 q-28 0 -51 -14 q-19 -12 -20 -40 l0 -133 l-196 0 l-83 0 q-43 1 -62 -20 q-19 -21 -19 -61 ZM439 243 l-196 0 q-13 0 -19 7 q-6 4 -6 30 l0 175 q0 16 4 21 q4 4 21 4 l196 0 l0 -237 ZM578 480 l185 0 q22 0 29 -4 q7 -4 7 -21 l0 -175 q0 -28 -3 -33 q-4 -3 -33 -4 l-185 0 l0 237 Z" /><glyph glyph-name="uni4E3A" unicode="&#x4e3a;" d="M961 99 q15 117 18 378 q0 55 -23 81 q-25 25 -78 25 l-318 0 l0 169 q0 27 -21 40 q-18 12 -45 12 q-28 0 -49 -13 q-19 -12 -20 -39 l0 -169 l-317 0 q-27 0 -39 -20 q-13 -21 -13 -49 q0 -27 12 -45 q13 -21 40 -21 l315 0 q-1 -24 -5 -49 q-7 -55 -28 -106 q-12 -40 -42 -94 q-33 -54 -66 -91 q-39 -42 -75 -66 q-37 -28 -79 -56 q-37 -22 -68 -38 q-25 -10 -29 -35 q-4 -22 7 -48 q10 -25 32 -39 q19 -16 45 -5 q31 12 83 43 q48 25 100 70 q40 31 85 83 q34 40 69 98 q40 66 63 133 q22 66 31 109 q7 40 11 91 l251 0 q16 0 22 -5 q6 -6 6 -24 q1 -106 -6 -230 q-13 -127 -25 -165 q-16 -39 -48 -51 q-40 -12 -102 -1 q-57 10 -94 19 q-28 9 -47 -9 q-19 -18 -29 -47 q-9 -28 -2 -51 q7 -25 35 -34 q61 -22 155 -30 q93 -4 153 20 q64 27 90 78 q28 63 45 181 ZM214 699 q21 -25 48 -72 q12 -24 37 -26 q22 -3 46 10 q25 12 38 34 q13 19 1 44 q-34 61 -67 98 q-18 19 -42 17 q-22 -3 -42 -21 q-21 -18 -29 -42 q-7 -22 10 -42 ZM582 231 q28 -33 64 -97 q13 -22 37 -25 q22 -3 46 10 q25 12 38 34 q13 19 1 44 q-42 76 -83 122 q-18 19 -42 17 q-22 -3 -42 -21 q-21 -18 -29 -42 q-7 -22 10 -42 l0 0 Z" /><glyph glyph-name="uni4E3B" unicode="&#x4e3b;" d="M459 635 l-323 0 q-27 0 -40 -20 q-12 -18 -12 -45 q0 -28 13 -49 q12 -21 39 -21 l317 0 l0 -177 l-261 0 q-27 0 -40 -20 q-12 -18 -12 -45 q0 -28 13 -49 q12 -21 39 -21 l261 0 l0 -201 l-369 0 q-27 0 -40 -20 q-12 -18 -12 -45 q0 -28 13 -49 q12 -21 39 -21 l856 0 q25 0 39 21 q12 18 12 45 q0 28 -13 49 q-12 19 -38 20 l-352 0 l0 201 l252 0 q25 0 39 21 q12 18 12 45 q0 28 -13 49 q-12 19 -38 20 l-252 0 l0 177 l300 0 q25 0 39 21 q12 18 12 45 q0 28 -13 49 q-12 19 -38 20 l-285 0 q9 19 -3 42 q-43 69 -84 110 q-19 19 -44 15 q-22 -4 -42 -24 q-21 -19 -28 -44 q-6 -24 13 -44 q19 -19 44 -55 l0 0 Z" /><glyph glyph-name="uni4E4B" unicode="&#x4e4b;" d="M132 496 l657 0 q13 0 21 -7 q6 -7 1 -27 q-9 -40 -58 -107 q-31 -43 -79 -80 q-70 -58 -173 -103 q-76 -33 -195 -63 q-13 19 -24 41 q0 28 -15 40 q-21 13 -48 15 q-25 1 -51 -8 q-21 -9 -24 -36 q-13 -55 -39 -119 q-28 -66 -73 -114 q-18 -19 -11 -44 q7 -24 28 -44 q19 -18 43 -22 q24 -4 43 15 q24 24 45 64 q22 40 37 99 q40 -61 93 -94 q48 -28 111 -42 q78 -18 162 -19 l360 -1 q30 1 44 26 q12 21 11 52 q-1 31 -18 54 q-13 22 -44 21 l-302 -3 q-114 -1 -182 16 q-4 1 -10 3 q58 22 121 53 q120 60 203 134 q67 60 110 127 q58 91 79 176 q13 61 -6 97 q-21 33 -73 35 l-260 0 q0 1 0 1 q-34 93 -74 152 q-13 22 -38 22 q-22 0 -46 -14 q-22 -15 -34 -38 q-10 -21 4 -43 q19 -31 41 -80 l-337 0 q-27 0 -39 -20 q-13 -21 -13 -49 q0 -27 12 -45 q13 -21 40 -21 l0 0 Z" /><glyph glyph-name="uni4E5F" unicode="&#x4e5f;" d="M596 108 l0 346 l134 41 q19 7 27 0 q7 -9 8 -28 l0 -123 q0 -25 -7 -39 q-7 -12 -24 -19 q-7 -1 -21 -1 q-15 1 -29 1 q-25 7 -42 -10 q-18 -18 -25 -45 q-7 -25 1 -47 q7 -22 33 -29 q55 -10 118 -9 q45 1 73 18 q27 16 42 38 q16 22 15 81 l0 278 q0 55 -27 83 q-28 27 -93 7 l-183 -56 l0 153 q0 27 -21 40 q-18 12 -45 12 q-28 0 -49 -13 q-19 -12 -20 -39 l0 -194 l-149 -45 l0 131 q0 27 -21 40 q-18 12 -45 12 q-28 0 -49 -13 q-19 -12 -20 -39 l0 -173 l-101 -30 q-25 -7 -31 -30 q-6 -25 2 -51 q7 -25 25 -40 q18 -16 43 -8 l62 19 l0 -312 q-1 -58 6 -83 q7 -24 21 -43 q16 -22 63 -37 q106 -21 347 -27 q237 1 306 35 q34 16 52 46 q12 24 20 68 q6 42 3 118 q0 25 -20 39 q-18 13 -45 13 q-28 0 -49 -12 q-21 -12 -21 -39 q-1 -31 -3 -61 q-3 -31 -11 -37 q-12 -7 -27 -11 q-79 -13 -247 -17 q-148 -1 -211 17 q-25 9 -37 24 q-10 18 -12 45 l0 315 l149 45 l0 -305 q0 -25 20 -39 q18 -12 45 -12 q28 0 49 13 q21 12 21 38 l0 0 Z" /><glyph glyph-name="uni4E70" unicode="&#x4e70;" d="M906 771 l-794 0 q-27 0 -39 -20 q-13 -21 -13 -49 q0 -27 12 -45 q13 -21 40 -21 l84 0 q-13 -13 -19 -35 q-7 -27 -1 -50 q6 -22 31 -30 q15 -4 65 -23 q48 -18 84 -36 q22 -12 44 0 q19 10 31 34 q12 25 11 50 q-1 22 -25 35 q-61 28 -98 43 q-16 6 -35 12 l509 0 q3 0 2 -15 l-68 -80 q-16 -22 -6 -44 q10 -24 33 -40 q22 -16 45 -18 q25 -1 41 21 q63 64 108 134 q43 58 43 109 q-1 27 -21 51 q-19 21 -64 17 ZM349 421 q-60 27 -94 41 q-31 10 -72 23 q-25 7 -42 -9 q-16 -13 -24 -40 q-7 -25 -1 -50 q6 -22 31 -29 q15 -4 62 -21 q27 -10 50 -21 l-163 0 q-27 0 -40 -20 q-12 -18 -12 -45 q0 -28 13 -49 q12 -21 39 -21 l323 0 q-13 -21 -35 -48 q-34 -37 -70 -64 q-40 -30 -79 -46 q-39 -19 -83 -39 q-39 -16 -72 -27 q-27 -6 -35 -29 q-7 -22 -2 -49 q7 -27 24 -43 q16 -19 44 -14 q33 9 90 33 q52 19 111 54 q45 25 93 63 q37 31 77 76 q43 51 68 102 q7 16 14 31 l364 0 q25 0 39 21 q12 18 12 45 q0 28 -13 49 q-12 19 -38 20 l-330 0 q1 10 2 21 l0 220 q0 27 -21 40 q-18 12 -45 12 q-28 0 -49 -13 q-19 -12 -20 -39 l0 -220 q0 -10 -1 -21 l-116 0 q7 10 15 22 q12 24 11 49 q-1 22 -25 35 ZM605 -23 q120 -40 302 -152 q24 -13 46 -3 q21 10 35 34 q15 24 15 50 q0 24 -23 38 q-186 112 -330 160 q-25 9 -44 -6 q-16 -13 -27 -39 q-9 -25 -4 -50 q4 -22 30 -32 l0 0 Z" /><glyph glyph-name="uni4E86" unicode="&#x4e86;" d="M164 761 q-28 0 -40 -20 q-13 -22 -14 -51 q0 -27 13 -46 q13 -22 41 -22 l520 0 q10 0 11 -21 l-241 -149 q-34 -22 -29 -59 q6 -39 30 -66 q73 -49 102 -90 q34 -49 46 -100 q10 -40 -7 -78 q-19 -37 -59 -64 q-48 -31 -100 -31 q-43 1 -88 15 q-48 16 -85 34 q-25 13 -47 1 q-25 -13 -40 -39 q-13 -25 -12 -50 q1 -25 26 -41 q52 -31 104 -47 q69 -18 139 -20 q97 0 168 45 q88 60 124 132 q34 81 18 158 q-10 57 -42 114 q-33 55 -79 95 q-7 10 -6 20 q0 10 14 20 l284 204 q46 33 44 74 q-4 40 -29 64 q-21 22 -83 18 l-683 0 Z" /><glyph glyph-name="uni4E8B" unicode="&#x4e8b;" d="M449 235 l-353 0 q-24 0 -35 -18 q-10 -16 -11 -40 q0 -24 12 -43 q10 -18 34 -18 l353 0 l0 -25 l-273 0 q-21 0 -30 -15 q-10 -16 -10 -37 q0 -21 10 -35 q9 -16 30 -16 l272 0 q-1 -12 -11 -25 q-13 -12 -39 -17 q-25 3 -52 7 q-25 6 -47 11 q-25 3 -40 -16 q-16 -19 -19 -47 q-3 -27 7 -47 q10 -22 37 -25 q58 -13 97 -16 q40 -1 85 4 q43 6 73 33 q21 18 34 46 q10 30 11 52 l0 40 l221 0 q54 0 76 24 q22 25 23 74 l0 30 l40 0 q22 0 34 19 q10 16 11 40 q0 24 -12 43 q-10 16 -33 17 l-40 0 l0 44 q0 42 -22 63 q-22 21 -62 21 l-76 0 l-160 0 l0 21 l239 0 q49 0 49 49 l0 129 q0 49 -49 49 l-239 0 l0 15 l348 0 q25 0 38 20 q12 18 12 44 q0 27 -13 48 q-12 19 -37 19 l-349 0 q-1 24 -20 35 q-18 12 -45 12 q-28 0 -49 -13 q-19 -10 -20 -34 l-361 0 q-25 0 -39 -19 q-12 -18 -12 -44 q0 -27 13 -48 q12 -19 38 -20 l361 0 l0 -15 l-243 0 q-49 0 -49 -49 l0 -129 q0 -49 49 -49 l243 0 l0 -21 l-281 0 q-21 0 -30 -15 q-10 -16 -10 -37 q0 -21 10 -35 q9 -16 30 -16 l281 0 l0 -25 ZM584 235 l0 25 l160 0 q15 0 20 -5 q4 -6 5 -20 l-185 0 ZM768 116 q0 -12 -3 -18 q-4 -6 -26 -7 l-155 0 l0 25 l184 0 ZM449 479 l-146 0 q-10 0 -11 11 l0 15 q0 10 11 11 l146 0 l0 -37 ZM584 516 l142 0 q10 0 11 -11 l0 -15 q0 -10 -11 -11 l-142 0 l0 37 Z" /><glyph glyph-name="uni4E8C" unicode="&#x4e8c;" d="M200 653 q-28 0 -41 -21 q-13 -19 -13 -46 q0 -28 14 -51 q12 -21 40 -21 l628 0 q27 0 40 22 q13 19 13 46 q0 28 -14 51 q-12 19 -39 20 l-628 0 ZM88 33 q-28 0 -41 -21 q-13 -19 -13 -46 q0 -28 14 -51 q12 -21 40 -21 l852 0 q27 0 40 22 q13 19 13 46 q0 28 -14 51 q-12 19 -39 20 l-852 0 Z" /><glyph glyph-name="uni4E8E" unicode="&#x4e8e;" d="M465 427 l-365 0 q-27 0 -40 -20 q-12 -18 -12 -45 q0 -28 13 -49 q12 -21 39 -21 l365 0 l0 -289 q0 -16 -12 -32 q-16 -15 -47 -21 q-28 3 -61 6 q-30 7 -55 12 q-25 1 -40 -17 q-15 -19 -18 -47 q-3 -27 8 -46 q10 -22 37 -25 q63 -13 106 -16 q43 -3 92 5 q48 6 80 36 q21 18 34 46 q10 30 11 52 l0 336 l324 0 q25 0 39 21 q12 18 12 45 q0 28 -13 49 q-12 19 -38 20 l-324 0 l0 189 l248 0 q25 0 39 21 q12 18 12 45 q0 28 -13 49 q-12 19 -38 20 l-668 0 q-27 0 -40 -20 q-12 -18 -12 -45 q0 -28 13 -49 q12 -21 39 -21 l285 0 l0 -189 Z" /><glyph glyph-name="uni4EAB" unicode="&#x4eab;" d="M570 739 q-15 28 -30 48 q-16 22 -40 20 q-22 -1 -44 -17 q-22 -16 -32 -40 q-3 -4 -3 -11 l-325 0 q-25 0 -37 -19 q-12 -16 -12 -42 q0 -25 12 -47 q12 -19 37 -19 l828 0 q24 0 36 20 q12 16 12 42 q0 25 -12 47 q-12 18 -36 18 l-354 0 ZM819 591 l-625 0 q-49 0 -49 -49 l0 -117 q0 -49 49 -49 l625 0 q49 0 49 49 l0 117 q0 49 -49 49 ZM722 504 q10 0 11 -11 l0 -19 q0 -10 -11 -11 l-431 0 q-10 0 -11 11 l0 19 q0 10 11 11 l431 0 ZM751 355 l-591 0 q-22 0 -32 -16 q-10 -18 -11 -40 q0 -22 10 -38 q10 -16 33 -17 l471 0 q7 0 8 -3 q0 -3 -1 -6 q-6 -4 -40 -13 q-37 -7 -111 -25 q-1 0 -1 -1 q0 0 -1 0 q-3 0 -4 -1 q-7 1 -15 -5 q-21 -13 -32 -37 q-3 -4 -4 -8 l-330 0 q-25 0 -39 -19 q-12 -18 -12 -44 q0 -27 13 -48 q12 -19 38 -20 l474 0 q24 -16 27 -32 q4 -12 2 -21 q-9 -16 -31 -20 q-31 -7 -102 0 q-76 7 -239 59 q-25 6 -41 -10 q-16 -16 -24 -43 q-6 -25 2 -46 q7 -22 32 -28 q168 -45 264 -52 q91 -9 151 -1 q57 10 93 37 q31 21 48 54 q7 39 3 84 q-1 10 -5 19 l178 0 q25 0 38 20 q12 18 12 44 q0 27 -13 48 q-12 19 -37 19 l-261 0 q9 4 22 9 q63 27 99 58 q46 33 45 67 q-1 36 -18 56 q-18 22 -68 20 l0 0 Z" /><glyph glyph-name="uni4EB2" unicode="&#x4eb2;" d="M449 285 l-285 0 q-25 0 -39 -19 q-12 -18 -12 -44 q0 -27 13 -48 q12 -19 38 -20 l285 0 l0 -159 q0 -16 -12 -32 q-9 -9 -26 -12 q-16 1 -34 3 q-16 3 -31 6 q-27 1 -41 -17 q-15 -19 -17 -47 q-3 -27 8 -47 q10 -21 37 -24 q46 -9 78 -9 q31 -1 68 6 q36 6 60 28 q21 18 34 46 q10 30 11 52 l0 206 l280 0 q25 0 38 20 q12 18 12 44 q0 27 -13 48 q-12 19 -37 19 l-280 0 l0 43 l332 0 q25 0 39 21 q12 18 12 45 q0 28 -13 49 q-12 19 -38 20 l-136 0 q16 39 26 71 q7 25 -9 44 q-1 1 -2 2 l57 0 q25 0 39 21 q12 18 12 45 q0 28 -13 49 q-12 19 -38 20 l-280 0 q-19 42 -38 70 q-15 22 -39 21 q-22 0 -45 -15 q-22 -15 -34 -38 q-9 -18 1 -38 l-245 0 q-27 0 -40 -20 q-12 -18 -12 -45 q0 -28 13 -49 q12 -21 39 -21 l71 0 q-12 -10 -19 -24 q-10 -21 3 -43 q12 -19 25 -50 l-144 0 q-27 0 -40 -20 q-12 -18 -12 -45 q0 -28 13 -49 q12 -21 39 -21 l341 0 l0 -43 ZM678 580 q-1 -3 -2 -7 q-13 -43 -47 -110 l-231 0 q-25 72 -54 117 l334 0 ZM298 113 q-55 -34 -111 -58 q-52 -16 -108 -29 q-27 -4 -37 -26 q-10 -22 -7 -52 q3 -27 18 -45 q16 -19 43 -16 q52 13 121 38 q67 25 156 75 q24 15 23 39 q-1 22 -17 45 q-15 22 -38 33 q-21 10 -43 -4 ZM681 -17 q82 -25 209 -98 q24 -13 46 -3 q21 10 35 34 q15 25 15 51 q0 24 -23 38 q-133 78 -239 111 q-25 9 -45 -7 q-18 -15 -27 -41 q-9 -27 -2 -53 q4 -22 31 -32 l0 0 Z" /><glyph glyph-name="uni4EBA" unicode="&#x4eba;" d="M441 752 l0 -144 q0 -58 -7 -112 q-7 -69 -27 -128 q-13 -49 -42 -114 q-33 -66 -66 -111 q-39 -51 -74 -80 q-37 -34 -78 -68 q-37 -28 -68 -45 q-25 -13 -26 -38 q-1 -22 11 -47 q13 -25 34 -36 q22 -15 46 -2 q30 15 80 51 q46 30 98 81 q39 37 82 96 q33 46 67 115 q28 58 49 117 q22 -54 52 -105 q61 -109 155 -213 q67 -70 159 -144 q21 -16 44 -8 q22 7 39 30 q16 22 19 48 q3 24 -19 41 q-100 79 -181 161 q-75 87 -111 158 q-37 64 -54 123 q-22 57 -37 138 q-6 28 -10 92 q-1 4 0 10 l0 134 q0 27 -21 40 q-18 12 -45 12 q-28 0 -49 -13 q-19 -12 -20 -39 l0 0 Z" /><glyph glyph-name="uni4ECA" unicode="&#x4eca;" d="M283 625 q-82 -61 -234 -126 q-25 -10 -29 -37 q-3 -27 9 -54 q12 -27 33 -40 q22 -13 48 -2 q91 40 199 118 q81 64 125 116 q45 54 78 54 q34 0 79 -50 q37 -45 151 -127 q93 -67 167 -100 q27 -10 48 3 q22 16 34 43 q12 27 9 51 q-4 25 -30 38 q-147 58 -226 119 q-84 64 -127 114 q-49 55 -105 56 q-55 1 -98 -55 q-43 -55 -131 -121 ZM441 449 q40 -25 97 -79 q18 -19 42 -14 q22 4 42 23 q19 19 26 44 q6 22 -12 42 q-66 64 -122 99 q-22 13 -44 3 q-21 -9 -35 -32 q-15 -22 -15 -48 q-1 -24 21 -38 ZM188 329 q-28 0 -40 -20 q-13 -22 -14 -51 q0 -27 13 -46 q13 -22 41 -22 l502 0 q9 0 12 0 q3 0 -2 -1 q-16 -25 -77 -79 q-73 -66 -240 -170 q-22 -13 -23 -38 q0 -25 15 -51 q13 -22 35 -33 q22 -10 46 3 q145 79 290 199 q124 106 153 178 q16 39 10 65 q-10 28 -30 46 q-19 16 -66 20 l-625 0 Z" /><glyph glyph-name="uni4ECD" unicode="&#x4ecd;" d="M215 766 q-28 -94 -77 -195 q-55 -97 -105 -173 q-19 -22 -17 -42 q3 -28 23 -46 q24 -19 45 -24 q25 -4 46 20 q4 7 11 14 l0 -456 q0 -25 20 -39 q18 -12 45 -12 q28 0 49 13 q21 12 21 38 l0 680 q0 6 -1 11 q6 13 12 27 q34 88 52 156 q6 24 -10 40 q-13 15 -39 21 q-25 6 -48 -1 q-21 -7 -27 -32 ZM751 767 l-343 0 q-27 0 -39 -20 q-13 -21 -13 -49 q0 -27 12 -45 q13 -21 40 -21 l53 0 l0 -188 q0 -43 -3 -85 q-4 -52 -11 -98 q-6 -37 -18 -87 q-13 -51 -27 -84 q-16 -40 -31 -62 q-15 -25 -32 -51 q-15 -22 -28 -35 q-21 -18 -18 -42 q3 -22 21 -44 q18 -22 41 -28 q24 -10 45 7 q13 10 36 39 q21 24 45 64 q16 28 37 75 q15 36 30 90 q18 58 28 119 q10 60 13 100 q6 52 7 122 l0 188 l68 0 q13 0 20 -7 q6 -6 3 -20 l-44 -214 q-7 -31 12 -56 q16 -22 52 -23 l123 0 q12 0 19 -5 q6 -6 6 -15 q0 -76 -7 -133 q-7 -57 -15 -90 q-13 -37 -25 -56 q-13 -22 -30 -35 q-10 -6 -21 -11 q-16 -6 -40 -5 q-28 4 -82 17 q-33 7 -47 -8 q-16 -18 -24 -45 q-7 -30 4 -56 q10 -16 28 -24 q46 -16 91 -22 q46 -4 87 -5 q51 4 81 20 q15 9 28 20 q34 31 46 60 q12 25 22 51 q13 34 26 122 q7 97 13 245 q1 46 -20 76 q-24 33 -63 34 l-98 0 q-7 0 -14 6 q-6 6 -4 17 l37 189 q12 51 -11 80 q-22 28 -66 28 l0 0 Z" /><glyph glyph-name="uni4ED6" unicode="&#x4ed6;" d="M227 763 q-30 -100 -82 -207 q-60 -103 -111 -182 q-19 -22 -18 -41 q3 -28 23 -47 q24 -19 45 -24 q25 -4 45 20 q4 4 8 10 l0 -428 q0 -25 20 -39 q18 -12 45 -12 q28 0 49 13 q21 12 21 38 l0 652 q0 1 -1 1 q13 25 25 53 q37 94 55 163 q6 25 -10 41 q-13 15 -39 21 q-25 6 -48 -1 q-21 -7 -27 -31 ZM605 390 l0 -290 q0 -25 20 -39 q18 -12 45 -12 q28 0 49 13 q21 12 21 38 l0 49 q43 -7 91 -10 q42 -1 67 15 q25 15 41 36 q15 22 14 80 l0 276 q-6 55 -36 84 q-28 25 -89 1 l-88 -36 l0 149 q0 27 -21 40 q-18 12 -45 12 q-28 0 -49 -13 q-19 -12 -20 -39 l0 -204 l-85 -34 l0 126 q0 27 -21 40 q-18 12 -45 12 q-28 0 -49 -13 q-19 -12 -20 -39 l0 -181 l-64 -26 q-25 -10 -29 -34 q-4 -25 7 -52 q10 -25 29 -39 q19 -13 46 -4 l11 4 l0 -357 q-1 -49 32 -80 q28 -25 74 -27 q196 1 391 0 q22 0 39 3 q13 1 27 10 q13 10 21 21 q16 25 19 56 q4 25 3 123 q0 34 -13 50 q-13 16 -46 23 q-34 1 -53 -13 q-22 -18 -23 -45 q0 -25 -1 -45 q0 -13 -1 -26 q-1 -13 -8 -18 q-7 -4 -52 -4 q-111 0 -238 0 q-22 1 -29 8 q-7 9 -7 29 l0 347 l85 35 ZM823 329 q0 -25 -6 -38 q-7 -12 -24 -18 q-4 -1 -15 1 q-10 3 -20 5 q-10 4 -18 3 l0 163 l53 22 q13 7 20 0 q7 -7 10 -25 l0 -113 Z" /><glyph glyph-name="uni4EE5" unicode="&#x4ee5;" d="M81 740 l-1 -654 q-3 -33 22 -61 q27 -25 58 -22 q28 6 94 24 q157 52 265 104 q19 6 24 30 q1 25 -5 49 q-9 25 -25 40 q-19 12 -49 4 q-97 -39 -197 -77 q-31 -10 -42 -4 q-9 9 -9 28 l0 539 q0 27 -21 40 q-18 12 -45 12 q-28 0 -49 -13 q-19 -12 -20 -39 ZM339 568 q58 -67 129 -197 q12 -22 36 -25 q21 -1 45 10 q24 12 37 33 q12 19 0 43 q-73 138 -147 222 q-16 19 -40 16 q-21 -3 -41 -20 q-21 -16 -28 -41 q-7 -21 9 -41 ZM992 -59 q-127 127 -238 202 q39 60 63 119 q25 69 36 114 q13 60 17 140 l0 228 q0 28 -22 41 q-19 13 -46 13 q-28 0 -51 -14 q-19 -12 -20 -40 l0 -228 q0 -49 -8 -96 q-10 -58 -33 -111 q-15 -43 -50 -98 q-40 -55 -80 -94 q-46 -45 -88 -70 q-45 -28 -95 -58 q-43 -24 -81 -39 q-25 -9 -31 -34 q-4 -22 4 -48 q10 -27 29 -40 q19 -18 45 -9 q36 13 98 45 q57 27 119 73 q48 33 100 86 q4 6 11 12 q94 -63 223 -189 q18 -19 42 -14 q22 4 42 23 q19 19 26 44 q6 22 -12 42 l0 0 Z" /><glyph glyph-name="uni4EEC" unicode="&#x4eec;" d="M183 760 q-22 -87 -63 -178 q-48 -88 -89 -158 q-18 -22 -16 -42 q4 -28 26 -46 q24 -18 45 -22 q16 -1 31 9 l0 -455 q0 -25 20 -39 q18 -12 45 -12 q28 0 49 13 q21 12 21 38 l0 680 q0 4 -1 10 q7 18 14 34 q28 82 43 144 q4 24 -12 40 q-15 15 -40 19 q-25 4 -47 -3 q-21 -7 -26 -32 ZM428 504 q0 27 -21 40 q-18 12 -45 12 q-28 0 -49 -13 q-19 -12 -20 -39 l0 -640 q0 -25 20 -39 q18 -12 45 -12 q28 0 49 13 q21 12 21 38 l0 640 ZM354 692 q22 -28 49 -80 q12 -25 37 -28 q22 -3 48 8 q25 12 41 34 q13 19 2 45 q-34 66 -67 107 q-16 22 -42 19 q-22 -1 -45 -19 q-22 -18 -31 -42 q-9 -22 8 -44 ZM624 763 q-27 0 -39 -20 q-13 -21 -13 -49 q0 -27 12 -45 q13 -21 40 -21 l176 0 q16 0 23 -7 q6 -6 6 -21 l0 -575 q0 -43 -24 -48 q-37 -6 -60 -6 q-22 0 -66 -1 q-28 -3 -37 -26 q-10 -24 -7 -52 q3 -28 18 -45 q16 -19 43 -16 q70 0 131 0 q58 0 83 14 q25 13 41 46 q12 25 12 120 l1 647 q0 58 -25 84 q-25 21 -81 21 l-234 0 Z" /><glyph glyph-name="uni4EF6" unicode="&#x4ef6;" d="M216 760 q-30 -90 -78 -184 q-55 -91 -103 -161 q-19 -21 -19 -41 q1 -28 23 -47 q22 -19 44 -25 q25 -4 46 19 l0 -449 q0 -25 20 -39 q18 -12 45 -12 q28 0 49 13 q21 12 21 38 l0 652 q0 6 -1 11 q10 24 22 46 q36 84 54 147 q6 24 -9 41 q-13 16 -39 22 q-25 6 -48 -1 q-21 -6 -27 -30 ZM629 275 l-245 0 q-27 0 -40 -20 q-12 -18 -12 -45 q0 -28 13 -49 q12 -21 39 -21 l245 0 l0 -276 q0 -25 20 -39 q18 -12 45 -12 q28 0 49 13 q21 12 21 38 l0 276 l188 0 q25 0 39 21 q12 18 12 45 q0 28 -13 49 q-12 19 -38 20 l-188 0 l0 197 l168 0 q25 0 39 21 q12 18 12 45 q0 28 -13 49 q-12 19 -38 20 l-168 0 l0 141 q0 27 -21 40 q-18 12 -45 12 q-28 0 -49 -13 q-19 -12 -20 -39 l0 -141 l-105 0 q10 34 22 73 q6 27 -12 43 q-16 15 -43 20 q-28 4 -51 -4 q-22 -7 -27 -34 q-19 -82 -46 -156 q-31 -64 -69 -128 q-16 -21 -8 -42 q10 -24 32 -41 q21 -16 43 -17 q24 -1 40 19 q33 55 69 132 l155 0 l0 -197 Z" /><glyph glyph-name="uni4EFB" unicode="&#x4efb;" d="M211 762 q-27 -97 -75 -200 q-55 -100 -103 -177 q-19 -22 -18 -42 q4 -27 25 -46 q24 -18 45 -23 q25 -3 45 21 q3 4 7 8 l0 -435 q0 -25 20 -39 q18 -12 45 -12 q28 0 49 13 q21 12 21 38 l0 668 q0 4 -1 9 q7 16 14 31 q34 91 51 159 q4 24 -11 40 q-15 15 -40 20 q-25 6 -48 -2 q-21 -7 -26 -31 ZM712 -13 l0 273 l220 0 q25 0 39 21 q12 18 12 45 q0 28 -13 49 q-12 19 -38 20 l-220 0 l0 221 q115 10 184 29 q27 7 34 30 q7 22 1 49 q-6 27 -25 45 q-16 18 -43 11 q-70 -16 -209 -30 q-138 -13 -243 -16 q-27 0 -40 -21 q-13 -19 -13 -47 q1 -28 14 -50 q13 -21 40 -21 q70 1 165 8 l0 -208 l-225 0 q-27 0 -40 -20 q-12 -18 -12 -45 q0 -28 13 -49 q12 -21 39 -21 l225 0 l0 -273 l-213 0 q-27 0 -40 -20 q-12 -18 -12 -45 q0 -28 13 -49 q12 -21 39 -21 l564 0 q25 0 39 21 q12 18 12 45 q0 28 -13 49 q-12 19 -38 20 l-216 0 Z" /><glyph glyph-name="uni4EFD" unicode="&#x4efd;" d="M236 769 q-33 -97 -87 -199 q-61 -99 -114 -174 q-19 -22 -19 -41 q1 -28 22 -48 q22 -19 44 -25 q25 -4 46 19 q6 7 13 14 l0 -447 q0 -25 20 -39 q18 -12 45 -12 q28 0 49 13 q21 12 21 38 l0 660 q0 1 -1 2 q12 24 24 48 q40 90 60 158 q6 24 -9 40 q-13 16 -38 23 q-25 6 -48 0 q-22 -6 -28 -30 ZM810 451 l-337 0 q12 19 24 41 q51 93 104 234 q7 27 -8 44 q-16 16 -42 24 q-27 7 -51 0 q-22 -6 -30 -31 q-31 -100 -73 -187 q-45 -76 -99 -150 q-18 -19 -11 -42 q7 -24 27 -43 q19 -18 42 -21 q24 -4 41 15 q12 -19 39 -19 l57 0 q1 -63 -5 -108 q-7 -52 -28 -101 q-19 -52 -59 -95 q-37 -39 -75 -76 q-22 -16 -19 -40 q1 -25 19 -49 q16 -22 38 -29 q22 -9 45 7 q67 54 105 101 q34 46 59 105 q31 79 44 153 q12 70 11 132 l115 0 q18 0 24 -6 q7 -6 7 -28 q1 -76 -2 -163 q-4 -88 -11 -116 q-6 -28 -20 -36 q-19 -10 -56 -5 q-34 4 -57 11 q-28 6 -46 -12 q-19 -19 -26 -49 q-7 -28 2 -52 q7 -25 37 -32 q46 -13 114 -13 q67 1 109 23 q40 22 56 63 q18 49 28 145 q9 87 10 270 q4 0 11 0 q25 1 49 18 q22 16 30 38 q10 22 -6 45 q-76 100 -109 178 q-30 69 -50 164 q-4 25 -28 34 q-21 7 -47 2 q-27 -6 -45 -23 q-16 -16 -11 -42 q24 -111 72 -216 q13 -31 32 -63 l0 0 Z" /><glyph glyph-name="uni4F11" unicode="&#x4f11;" d="M228 768 q-31 -94 -83 -194 q-58 -97 -110 -171 q-19 -21 -19 -41 q1 -28 22 -47 q22 -19 45 -25 q24 -4 45 19 q7 10 17 20 l0 -461 q0 -25 20 -39 q18 -12 45 -12 q28 0 49 13 q21 12 21 38 l0 680 q0 1 -1 3 q7 16 15 30 q37 88 57 155 q6 24 -9 41 q-13 15 -39 22 q-25 6 -48 0 q-21 -6 -27 -31 ZM940 619 l-228 0 l0 133 q0 27 -21 40 q-18 12 -45 12 q-28 0 -49 -13 q-19 -12 -20 -39 l0 -133 l-213 0 q-27 0 -40 -20 q-12 -18 -12 -45 q0 -28 13 -49 q12 -21 39 -21 l195 0 q-49 -82 -102 -154 q-67 -76 -143 -146 q-22 -16 -20 -40 q3 -25 20 -49 q16 -22 38 -30 q24 -7 45 8 q64 61 141 154 q19 24 39 51 l0 -410 q0 -25 20 -39 q18 -12 45 -12 q28 0 49 13 q21 12 21 38 l0 405 q10 -13 23 -26 q76 -84 167 -150 q22 -16 44 -7 q24 9 41 32 q16 22 18 45 q1 25 -20 41 q-112 79 -174 150 q-46 52 -90 126 l219 0 q25 0 39 21 q12 18 12 45 q0 28 -13 49 q-12 19 -38 20 l0 0 Z" /><glyph glyph-name="uni4F17" unicode="&#x4f17;" d="M507 60 q-52 48 -126 108 q4 28 7 64 l0 52 q0 27 -21 40 q-18 12 -45 12 q-28 0 -49 -13 q-19 -12 -20 -39 l0 -52 q0 -25 -4 -48 q-4 -30 -15 -55 q-7 -22 -23 -49 q-18 -28 -37 -48 q-21 -22 -40 -34 q-21 -15 -44 -30 q-19 -12 -37 -19 q-25 -10 -29 -35 q-4 -22 6 -48 q10 -25 31 -39 q19 -16 45 -7 q19 7 52 27 q31 16 64 43 q25 19 54 51 q21 24 44 60 q12 21 21 40 q37 -37 66 -71 q16 -19 41 -15 q22 3 42 21 q19 18 28 42 q7 22 -11 42 ZM96 311 q124 16 223 43 q91 25 158 73 q28 24 49 49 q7 -7 17 -17 q46 -51 96 -77 q52 -30 124 -47 q82 -21 174 -20 q27 1 39 22 q13 22 12 50 q0 28 -13 47 q-13 21 -41 20 q-67 -1 -108 6 q-64 12 -100 29 q-40 16 -84 57 q-31 28 -68 89 q1 24 2 49 l0 64 q0 27 -21 40 q-18 12 -45 12 q-28 0 -49 -13 q-19 -12 -20 -39 l0 -64 q0 -58 -24 -96 q-19 -28 -54 -51 q-36 -22 -97 -42 q-67 -19 -171 -37 q-28 0 -43 -22 q-13 -19 -13 -50 q0 -30 15 -54 q13 -22 42 -21 ZM784 192 l0 84 q0 27 -21 40 q-18 12 -45 12 q-28 0 -49 -13 q-19 -12 -20 -39 l0 -84 q0 -21 -4 -41 q-3 -25 -12 -48 q-6 -18 -20 -42 q-15 -24 -30 -41 q-18 -19 -35 -30 q-16 -12 -36 -25 q-16 -10 -32 -17 q-25 -10 -29 -35 q-4 -22 7 -48 q10 -25 31 -39 q21 -16 46 -5 q16 6 46 24 q27 13 56 38 q22 18 48 46 q19 22 38 55 q15 -27 33 -48 q30 -37 74 -69 q49 -31 75 -47 q24 -13 45 -2 q22 13 37 38 q13 24 12 47 q-1 24 -25 38 q-48 25 -78 45 q-27 21 -45 44 q-18 22 -35 54 q-16 31 -30 79 q-1 4 -4 10 q1 10 2 19 l0 0 Z" /><glyph glyph-name="uni4F18" unicode="&#x4f18;" d="M731 688 q27 -22 63 -66 q15 -21 39 -19 q21 1 43 17 q21 16 31 39 q7 21 -7 42 q-45 55 -84 88 q-19 16 -42 9 q-21 -6 -38 -26 q-16 -21 -21 -45 q-3 -22 16 -39 ZM940 587 l-316 0 l0 165 q0 27 -21 40 q-18 12 -45 12 q-28 0 -49 -13 q-19 -12 -20 -39 l0 -165 l-133 0 q-27 0 -40 -20 q-12 -18 -12 -45 q0 -28 13 -49 q12 -21 39 -21 l130 0 q-1 -10 -1 -22 q-4 -61 -13 -116 q-7 -46 -21 -104 q-16 -60 -34 -100 q-19 -46 -37 -73 q-18 -31 -39 -62 q-18 -25 -34 -41 q-21 -16 -18 -42 q3 -22 21 -44 q18 -22 40 -28 q25 -10 46 7 q15 13 42 45 q25 28 52 74 q19 34 43 87 q18 42 36 104 q19 69 32 138 q4 30 8 55 l0 -394 q-1 -48 31 -77 q28 -25 72 -27 q91 1 181 0 q21 0 37 3 q13 1 26 10 q12 9 20 19 q16 27 19 58 q4 25 4 129 q0 31 -13 47 q-13 15 -44 20 q-33 1 -50 -13 q-19 -16 -20 -43 q-1 -30 -2 -52 q-1 -15 -4 -30 q0 -13 -7 -17 q-7 -4 -48 -4 q-15 0 -32 0 q-21 1 -28 8 q-7 7 -7 27 l0 458 l196 0 q25 0 39 21 q12 18 12 45 q0 28 -13 49 q-12 19 -38 20 ZM215 766 q-28 -99 -77 -202 q-55 -100 -105 -179 q-19 -22 -18 -42 q4 -27 25 -46 q22 -18 45 -23 q25 -3 45 21 q4 7 11 14 l0 -445 q0 -25 20 -39 q18 -12 45 -12 q28 0 49 13 q21 12 21 38 l0 680 q0 3 -1 6 q6 15 13 28 q34 91 52 160 q4 25 -11 41 q-15 15 -40 20 q-25 6 -47 -2 q-21 -7 -27 -31 l0 0 Z" /><glyph glyph-name="uni4F1A" unicode="&#x4f1a;" d="M299 644 q-84 -54 -237 -111 q-28 -10 -32 -35 q-4 -27 6 -55 q10 -27 30 -42 q19 -15 47 -5 q96 36 208 106 q84 58 130 103 q46 49 81 49 q33 0 75 -45 q36 -40 145 -115 q88 -60 159 -89 q27 -10 47 4 q22 16 34 43 q10 27 7 51 q-4 25 -31 37 q-139 54 -215 108 q-79 57 -121 102 q-46 51 -100 51 q-57 1 -99 -49 q-45 -48 -134 -108 ZM280 461 q-25 0 -39 -19 q-12 -18 -12 -44 q0 -27 13 -48 q12 -19 38 -20 l492 0 q25 0 38 20 q12 18 12 44 q0 27 -13 48 q-12 19 -37 19 l-492 0 ZM880 283 l-724 0 q-27 0 -40 -20 q-12 -18 -12 -45 q0 -28 13 -49 q12 -21 39 -21 l216 0 q-85 -91 -215 -186 q-16 -10 -22 -35 q-6 -22 2 -49 q9 -28 34 -41 q22 -10 49 -9 l580 39 q4 1 12 1 q9 -13 19 -31 q13 -24 38 -25 q22 -1 46 11 q24 13 37 36 q12 21 -1 44 q-73 126 -144 202 q-18 19 -42 15 q-22 -4 -42 -22 q-19 -19 -27 -43 q-7 -22 11 -42 q9 -10 19 -23 l-348 -21 q103 96 166 179 l336 0 q25 0 39 21 q12 18 12 45 q0 28 -13 49 q-12 19 -38 20 l0 0 Z" /><glyph glyph-name="uni4F53" unicode="&#x4f53;" d="M249 768 q-36 -90 -93 -183 q-64 -90 -118 -159 q-19 -19 -21 -40 q1 -27 19 -48 q22 -21 43 -28 q24 -6 47 16 q9 10 19 20 l0 -482 q0 -25 20 -39 q18 -12 45 -12 q28 0 49 13 q21 12 21 38 l0 229 q16 -19 37 -28 q24 -7 45 9 q72 70 156 174 q25 31 51 69 l0 -188 l-97 0 q-25 0 -39 -19 q-12 -18 -12 -44 q0 -27 13 -48 q12 -19 38 -20 l97 0 l0 -134 q0 -25 20 -39 q18 -12 45 -12 q28 0 49 13 q21 12 21 38 l0 134 l100 0 q25 0 38 20 q12 18 12 44 q0 27 -13 48 q-12 19 -37 19 l-100 0 l0 162 q9 -12 18 -24 q78 -102 175 -187 q21 -18 44 -10 q25 7 43 29 q19 19 22 43 q4 24 -16 43 q-123 102 -187 189 q-40 55 -78 126 l195 0 q25 0 39 21 q12 18 12 45 q0 28 -13 49 q-12 19 -38 20 l-216 0 l0 121 q0 27 -21 40 q-18 12 -45 12 q-28 0 -49 -13 q-19 -12 -20 -39 l0 -121 l-193 0 q-27 0 -40 -20 q-12 -18 -12 -45 q0 -28 13 -49 q12 -21 39 -21 l158 0 q-46 -78 -96 -148 q-73 -85 -158 -166 l0 354 q12 21 24 41 q43 84 66 147 q7 24 -7 41 q-13 16 -37 25 q-24 7 -47 3 q-22 -4 -30 -29 l0 0 Z" /><glyph glyph-name="uni4F59" unicode="&#x4f59;" d="M453 319 l-333 0 q-27 0 -40 -20 q-12 -18 -12 -45 q0 -28 13 -49 q12 -21 39 -21 l333 0 l0 -189 q0 -16 -12 -32 q-10 -7 -29 -11 q-19 3 -39 6 q-19 4 -36 9 q-27 4 -41 -14 q-16 -19 -20 -47 q-3 -27 6 -47 q10 -22 36 -25 q52 -13 86 -15 q34 -3 75 3 q39 4 64 28 q21 18 34 46 q10 30 11 52 l0 236 l312 0 q25 0 39 21 q12 18 12 45 q0 28 -13 49 q-12 19 -38 20 l-312 0 l0 67 l172 0 q25 0 38 20 q12 18 12 44 q0 6 -1 11 q49 -27 92 -45 q25 -10 45 4 q21 16 31 42 q10 25 6 48 q-4 25 -29 35 q-139 52 -217 106 q-79 55 -121 100 q-46 49 -100 50 q-55 1 -95 -46 q-42 -46 -127 -103 q-79 -52 -227 -106 q-25 -10 -30 -34 q-4 -25 5 -52 q10 -25 29 -39 q19 -15 45 -6 q49 19 105 48 q0 -4 0 -9 q0 -27 13 -48 q12 -19 38 -20 l181 0 l0 -67 ZM719 517 l-404 0 q79 55 123 99 q45 46 78 46 q34 0 76 -44 q33 -36 127 -101 ZM243 143 q-40 -42 -81 -75 q-40 -28 -84 -51 q-25 -10 -30 -34 q-4 -25 7 -52 q10 -25 29 -39 q19 -13 45 -4 q43 22 98 61 q52 37 121 101 q19 21 12 45 q-7 22 -28 40 q-21 19 -47 24 q-24 4 -42 -16 ZM688 31 q67 -43 164 -138 q19 -19 43 -15 q22 4 43 24 q21 19 28 45 q6 22 -13 43 q-102 103 -189 159 q-22 15 -46 4 q-21 -9 -36 -32 q-16 -24 -16 -50 q-1 -25 22 -40 l0 0 Z" /><glyph glyph-name="uni4F5C" unicode="&#x4f5c;" d="M228 759 q-31 -97 -82 -200 q-58 -100 -108 -177 q-19 -21 -18 -41 q3 -28 23 -47 q22 -19 45 -24 q25 -4 45 20 q7 9 16 19 l0 -441 q0 -25 20 -39 q18 -12 45 -12 q28 0 49 13 q21 12 21 38 l0 664 q0 4 -1 11 q6 13 13 27 q37 91 55 159 q6 24 -10 41 q-13 15 -39 21 q-25 6 -47 -1 q-22 -7 -27 -31 ZM549 548 l0 -680 q0 -25 20 -39 q18 -12 45 -12 q28 0 49 13 q21 12 21 38 l0 188 l228 0 q25 0 39 21 q12 18 12 45 q0 28 -13 49 q-12 19 -38 20 l-228 0 l0 113 l228 0 q25 0 39 21 q12 18 12 45 q0 28 -13 49 q-12 19 -38 20 l-228 0 l0 109 l268 0 q25 0 39 21 q12 18 12 45 q0 28 -13 49 q-12 19 -38 20 l-389 0 q7 28 12 57 q3 27 -16 42 q-16 13 -44 18 q-27 3 -50 -8 q-21 -9 -25 -35 q-10 -88 -41 -164 q-31 -78 -88 -146 q-19 -16 -16 -41 q3 -22 21 -42 q18 -21 42 -28 q22 -7 42 10 q67 70 117 185 q3 9 6 17 l26 0 Z" /><glyph glyph-name="uni4F60" unicode="&#x4f60;" d="M236 771 q-33 -103 -89 -213 q-63 -106 -117 -187 q-19 -22 -18 -42 q3 -28 23 -46 q22 -19 44 -25 q25 -4 46 20 q10 12 20 24 l0 -434 q0 -25 20 -39 q18 -12 45 -12 q28 0 49 13 q21 12 21 38 l0 656 q0 3 -1 6 q10 22 21 43 q39 96 59 168 q6 24 -10 40 q-13 16 -38 22 q-25 6 -48 -1 q-21 -6 -27 -31 ZM429 766 q-22 -90 -51 -167 q-34 -70 -76 -137 q-16 -21 -8 -43 q9 -22 31 -40 q21 -16 44 -18 q24 -3 40 18 q37 61 77 146 q4 13 11 27 l340 0 q10 0 16 -7 q6 -7 4 -21 q-3 -6 -15 -23 q-12 -16 -39 -43 q-13 -24 -1 -45 q13 -22 37 -36 q25 -13 48 -11 q24 1 37 25 q37 54 56 106 q10 30 19 66 q10 52 -3 74 q-16 25 -38 39 q-19 13 -59 11 l-353 0 q7 25 16 52 q6 27 -11 44 q-16 15 -44 20 q-27 4 -51 -3 q-22 -7 -27 -34 ZM599 456 l0 -458 q0 -16 -12 -33 q-10 -9 -30 -12 q-18 1 -38 4 q-19 4 -36 9 q-27 3 -41 -17 q-16 -19 -19 -48 q-4 -28 7 -48 q10 -22 38 -26 q51 -10 85 -12 q34 -1 74 4 q39 6 65 30 q21 18 35 47 q10 31 11 54 l0 506 q0 28 -22 41 q-19 13 -46 13 q-28 0 -51 -14 q-19 -12 -20 -40 ZM764 258 q48 -100 93 -279 q6 -25 29 -34 q19 -7 47 -2 q27 6 45 23 q18 16 12 43 q-43 186 -104 308 q-12 24 -36 27 q-22 3 -46 -9 q-25 -12 -39 -34 q-13 -19 -1 -43 ZM420 320 q-28 -99 -107 -249 q-13 -22 -2 -45 q10 -19 34 -33 q25 -13 50 -13 q24 1 37 24 q84 157 118 279 q7 25 -9 44 q-15 16 -41 24 q-25 7 -50 1 q-22 -6 -30 -32 l0 0 Z" /><glyph glyph-name="uni4F7F" unicode="&#x4f7f;" d="M203 764 q-25 -97 -72 -201 q-52 -100 -100 -179 q-18 -22 -16 -42 q4 -28 26 -46 q24 -18 45 -22 q25 -3 45 22 q1 1 2 3 l0 -431 q0 -25 20 -39 q18 -12 45 -12 q28 0 49 13 q21 12 21 38 l0 668 q0 7 -2 11 q7 16 14 33 q33 91 48 160 q4 24 -12 40 q-15 15 -40 19 q-25 4 -47 -3 q-21 -7 -26 -32 ZM974 243 l0 241 q0 49 -49 49 l-217 0 l0 37 l220 0 q25 0 38 20 q12 18 12 44 q0 27 -13 48 q-12 19 -37 19 l-220 0 l0 51 q0 27 -21 40 q-18 12 -45 12 q-28 0 -49 -13 q-19 -12 -20 -39 l0 -51 l-205 0 q-25 0 -39 -19 q-12 -18 -12 -44 q0 -27 13 -48 q12 -19 38 -20 l205 0 l0 -37 l-217 0 q-49 0 -49 -49 l0 -241 q0 -49 49 -49 l217 0 l0 -10 q0 -57 -17 -93 q-12 -21 -29 -41 q-12 12 -24 26 q-31 34 -64 83 q-15 22 -39 21 q-22 -1 -44 -16 q-22 -16 -33 -38 q-10 -22 5 -44 q30 -43 60 -75 q10 -10 20 -21 q-34 -10 -76 -20 q-28 -4 -39 -29 q-10 -22 -6 -51 q4 -30 23 -51 q16 -19 45 -16 q91 18 164 43 q25 10 48 22 q57 -22 135 -35 q115 -21 260 -20 q27 4 35 28 q7 25 2 53 q-6 27 -22 42 q-18 18 -44 12 q-127 1 -203 11 q-31 4 -57 9 q12 22 19 44 q15 57 16 156 l0 10 l217 0 q49 0 49 49 ZM573 325 l-124 0 q-10 0 -11 11 l0 55 q0 10 11 11 l124 0 l0 -77 ZM708 402 l124 0 q10 0 11 -11 l0 -55 q0 -10 -11 -11 l-124 0 l0 77 Z" /><glyph glyph-name="uni4F9B" unicode="&#x4f9b;" d="M840 595 l0 157 q0 27 -21 40 q-18 12 -45 12 q-28 0 -49 -13 q-19 -12 -20 -39 l0 -157 l-133 0 l0 153 q0 27 -21 40 q-18 12 -45 12 q-28 0 -49 -13 q-19 -12 -20 -39 l0 -153 l-57 0 q-27 0 -40 -20 q-12 -18 -12 -45 q0 -28 13 -49 q12 -21 39 -21 l57 0 l0 -153 l-125 0 q-27 0 -40 -19 l0 240 q0 1 -1 1 q16 27 32 54 q43 85 67 149 q7 24 -7 41 q-13 16 -37 25 q-24 7 -47 3 q-22 -4 -30 -28 q-37 -91 -95 -186 q-64 -91 -119 -161 q-21 -19 -22 -39 q1 -28 19 -49 q22 -21 43 -28 q24 -6 47 16 q7 7 15 16 l0 -478 q0 -25 20 -39 q18 -12 45 -12 q28 0 49 13 q21 12 21 38 l0 330 q0 0 1 -1 q12 -21 39 -21 l640 0 q25 0 39 21 q12 18 12 45 q0 28 -13 49 q-12 19 -38 20 l-112 0 l0 153 l60 0 q25 0 39 21 q12 18 12 45 q0 28 -13 49 q-12 19 -38 20 l-60 0 ZM572 460 l133 0 l0 -153 l-133 0 l0 153 ZM461 110 q-34 -52 -71 -96 q-37 -37 -81 -71 q-22 -15 -21 -39 q0 -25 16 -50 q15 -22 36 -32 q22 -10 46 4 q40 34 88 84 q48 51 104 133 q15 22 3 44 q-10 19 -34 33 q-24 13 -49 14 q-24 -1 -37 -24 ZM720 20 q69 -61 159 -185 q15 -22 39 -21 q22 0 45 16 q22 16 33 39 q10 21 -5 43 q-94 132 -180 209 q-19 18 -43 11 q-22 -4 -40 -26 q-18 -19 -23 -45 q-4 -22 15 -41 l0 0 Z" /><glyph glyph-name="uni4FDD" unicode="&#x4fdd;" d="M194 769 q-31 -102 -71 -190 q-43 -78 -96 -153 q-18 -21 -10 -44 q7 -24 29 -43 q21 -18 44 -21 q19 -3 35 10 l0 -464 q0 -25 20 -39 q18 -12 45 -12 q28 0 49 13 q21 12 21 38 l0 692 q0 4 -1 8 q33 76 66 172 q7 25 -9 44 q-16 16 -42 22 q-27 7 -51 -1 q-22 -6 -29 -32 ZM903 761 l-517 0 q-49 0 -49 -49 l0 -277 q0 -49 49 -49 l187 0 l0 -47 l-245 0 q-27 0 -40 -20 q-12 -18 -12 -45 q0 -28 13 -49 q12 -21 39 -21 l175 0 q-34 -36 -67 -69 q-66 -55 -140 -103 q-22 -12 -25 -35 q-1 -25 12 -50 q12 -24 31 -34 q21 -13 45 0 q64 43 142 110 q34 31 72 69 l0 -228 q0 -25 20 -39 q18 -12 45 -12 q28 0 49 13 q21 12 21 38 l0 215 q19 -19 40 -41 q73 -69 159 -122 q22 -15 43 -4 q22 10 38 34 q13 22 14 45 q0 24 -22 38 q-103 64 -163 122 q-24 24 -48 53 l175 0 q25 0 39 21 q12 18 12 45 q0 28 -13 49 q-12 19 -38 20 l-236 0 l0 47 l195 0 q49 0 49 49 l0 277 q0 49 -49 49 ZM806 630 q10 0 11 -11 l0 -91 q0 -10 -11 -11 l-323 0 q-10 0 -11 11 l0 91 q0 10 11 11 l323 0 Z" /><glyph glyph-name="uni4FE1" unicode="&#x4fe1;" d="M205 765 q-25 -91 -72 -187 q-52 -94 -99 -166 q-18 -21 -17 -41 q4 -27 24 -45 q22 -18 44 -23 q21 -1 40 17 l0 -456 q0 -25 20 -39 q18 -12 45 -12 q28 0 49 13 q21 12 21 38 l0 672 q0 7 -2 11 q10 21 19 42 q33 85 49 150 q4 22 -11 39 q-13 13 -38 20 q-24 4 -46 -2 q-21 -7 -26 -31 ZM712 683 q-25 60 -53 99 q-15 22 -40 22 q-22 0 -46 -16 q-24 -15 -35 -39 q-10 -22 5 -45 q6 -9 13 -21 l-188 0 q-27 0 -40 -20 q-12 -18 -12 -45 q0 -28 13 -49 q12 -21 39 -21 l572 0 q25 0 39 21 q12 18 12 45 q0 28 -13 49 q-12 19 -38 20 l-228 0 ZM424 515 q-24 0 -35 -18 q-10 -16 -11 -40 q0 -24 12 -43 q10 -18 34 -18 l436 0 q22 0 34 19 q10 16 11 40 q0 24 -12 43 q-10 16 -33 17 l-436 0 ZM424 367 q-24 0 -35 -18 q-10 -16 -11 -40 q0 -24 12 -43 q10 -18 34 -18 l436 0 q22 0 34 19 q10 16 11 40 q0 24 -12 43 q-10 16 -33 17 l-436 0 ZM899 219 l-513 0 q-49 0 -49 -49 l0 -273 q0 -49 49 -49 l513 0 q49 0 49 49 l0 273 q0 49 -49 49 ZM802 84 q10 0 11 -11 l0 -79 q0 -10 -11 -11 l-319 0 q-10 0 -11 11 l0 79 q0 10 11 11 l319 0 Z" /><glyph glyph-name="uni5012" unicode="&#x5012;" d="M171 768 q-21 -79 -58 -163 q-43 -82 -82 -145 q-18 -22 -16 -42 q4 -28 26 -46 q24 -18 45 -22 q7 0 15 0 l0 -482 q0 -25 20 -39 q18 -12 45 -12 q28 0 49 13 q21 12 21 38 l0 684 q0 4 -1 8 q10 25 21 50 q27 76 40 134 q4 24 -12 40 q-15 15 -40 19 q-25 4 -47 -3 q-21 -7 -26 -32 ZM660 765 l-312 0 q-25 0 -39 -19 q-12 -18 -12 -44 q0 -27 13 -48 q12 -19 38 -20 l45 0 q-43 -97 -133 -207 q-13 -13 -14 -36 q-1 -22 11 -45 q13 -24 39 -32 q22 -6 46 0 l63 6 l0 -89 l-77 0 q-27 0 -40 -20 q-12 -18 -12 -45 q0 -28 13 -49 q12 -21 39 -21 l77 0 l0 -95 q-52 -1 -97 -3 q-28 0 -41 -21 q-13 -19 -13 -47 q0 -28 14 -50 q12 -21 39 -21 q84 1 216 13 q88 7 141 21 q25 6 34 30 q7 21 1 48 q-6 28 -24 46 q-16 18 -44 11 q-34 -7 -91 -15 l0 83 l76 0 q25 0 39 21 q12 18 12 45 q0 28 -13 49 q-12 19 -38 20 l-76 0 l0 102 l68 7 q0 -7 2 -13 q7 -22 28 -29 q19 -6 42 1 q10 4 21 9 l0 -196 q0 -24 19 -36 q16 -12 42 -12 q25 0 47 12 q19 12 19 36 l0 460 q0 25 -20 37 q-16 12 -42 12 q-25 0 -47 -12 q-18 -12 -18 -37 l0 -134 q-10 24 -15 41 q-16 37 -39 84 q-10 21 -33 22 q-19 1 -41 -9 q-22 -10 -33 -31 q-10 -18 0 -39 q4 -12 20 -46 l-123 -9 q61 97 93 176 q1 4 2 7 l128 0 q25 0 38 20 q12 18 12 44 q0 27 -13 48 q-12 19 -37 19 ZM853 748 l0 -757 q0 -16 -12 -32 q-7 -6 -21 -9 q-13 1 -28 4 q-13 3 -25 6 q-25 3 -40 -16 q-16 -19 -19 -47 q-3 -27 7 -47 q10 -22 37 -25 q43 -9 72 -9 q30 -1 64 4 q33 4 55 26 q21 18 34 46 q10 30 11 52 l0 804 q0 27 -21 40 q-18 12 -45 12 q-28 0 -49 -13 q-19 -12 -20 -39 l0 0 Z" /><glyph glyph-name="uni503C" unicode="&#x503c;" d="M220 769 q-30 -90 -80 -182 q-55 -90 -105 -159 q-19 -21 -19 -41 q1 -28 22 -48 q22 -19 44 -25 q25 -4 46 19 q7 9 17 19 l0 -488 q0 -25 20 -39 q18 -12 45 -12 q28 0 49 13 q21 12 21 38 l0 696 q0 7 -2 12 q4 9 9 17 q37 84 56 146 q6 25 -9 41 q-13 16 -38 23 q-25 6 -48 0 q-22 -6 -28 -30 ZM934 -21 l0 516 q-1 42 -23 68 q-22 22 -68 22 l-154 0 q4 16 9 29 l222 0 q25 0 38 20 q12 18 12 44 q0 27 -13 48 q-12 19 -37 19 l-195 0 q3 25 -15 41 q-16 15 -43 18 q-27 4 -49 -6 q-21 -9 -25 -35 q-1 -6 -4 -18 l-201 0 q-25 0 -39 -19 q-12 -18 -12 -44 q0 -27 13 -48 q12 -19 38 -20 l171 0 q-4 -13 -9 -29 l-13 0 l-68 0 q-42 1 -68 -21 q-22 -22 -22 -69 l0 -516 l-31 0 q-27 0 -40 -20 q-12 -18 -12 -45 q0 -28 13 -49 q12 -21 39 -21 l600 0 q25 0 39 21 q12 18 12 45 q0 28 -13 49 q-12 19 -38 20 l-14 0 ZM803 8 l0 -29 l-293 0 l0 29 l293 0 ZM803 160 l0 -33 l-293 0 l0 33 l293 0 ZM510 279 l0 29 l293 0 l0 -29 l-293 0 ZM510 427 q0 18 6 23 q4 4 21 4 l237 0 q21 0 25 -4 q4 -4 3 -23 l-292 0 Z" /><glyph glyph-name="uni5047" unicode="&#x5047;" d="M293 678 l0 -814 q0 -25 20 -38 q21 -13 49 -13 q27 0 45 12 q21 13 21 39 l0 136 l136 0 q25 0 39 21 q12 18 12 45 q0 28 -13 49 q-12 19 -38 20 l-136 0 l0 61 l132 0 q25 0 39 21 q12 18 12 45 q0 28 -13 49 q-12 19 -38 20 l-132 0 l0 61 l146 0 q70 0 70 70 l0 243 q0 70 -70 70 l-211 0 q-37 0 -55 -20 q-1 16 -12 26 q-16 13 -41 19 q-25 4 -47 -5 q-21 -7 -25 -32 q-22 -91 -63 -188 q-48 -94 -90 -168 q-16 -22 -15 -43 q4 -27 26 -45 q25 -16 46 -21 q13 -1 26 6 l0 -440 q0 -25 20 -39 q18 -12 45 -12 q28 0 49 13 q21 12 21 38 l0 668 q0 4 -1 10 q10 25 20 48 q15 48 26 88 ZM428 618 q0 22 22 22 l36 0 q22 0 23 -22 l0 -68 q0 -22 -23 -23 l-58 0 l0 91 ZM824 767 l-108 0 q-27 0 -39 -20 q-13 -21 -13 -49 q0 -27 12 -45 q13 -21 40 -21 l108 0 q16 1 23 -6 q4 -7 6 -22 l0 -19 q0 -19 -5 -26 q-4 -7 -29 -8 l-99 0 q-27 0 -39 -20 q-13 -21 -13 -49 q0 -27 12 -45 q13 -21 40 -21 l156 0 q61 1 87 28 q25 28 25 84 l0 144 q-1 48 -25 72 q-27 24 -71 23 l-68 0 ZM909 383 l-233 0 q-27 0 -39 -20 q-13 -21 -13 -49 q0 -27 12 -45 q13 -21 40 -21 l155 0 q16 0 23 -11 q6 -10 -1 -29 q-9 -34 -28 -69 q-9 -16 -19 -31 q-27 40 -53 91 q-12 22 -35 25 q-22 1 -45 -11 q-22 -12 -36 -33 q-10 -19 1 -42 q34 -66 80 -127 q-7 -4 -13 -10 q-37 -27 -100 -54 q-25 -12 -27 -36 q-1 -25 11 -52 q12 -24 32 -36 q21 -13 45 -1 q39 18 109 74 q10 10 22 19 q46 -46 99 -89 q21 -16 44 -8 q24 9 42 31 q16 21 19 44 q3 25 -18 42 q-57 43 -97 81 q34 49 61 109 q28 63 50 155 q6 45 -17 79 q-21 28 -71 24 l0 0 Z" /><glyph glyph-name="uni5077" unicode="&#x5077;" d="M225 772 q-33 -82 -84 -166 q-58 -81 -107 -144 q-21 -19 -21 -40 q1 -28 19 -48 q22 -21 43 -28 q24 -6 47 16 q3 4 7 7 l0 -505 q0 -25 20 -39 q18 -12 45 -12 q28 0 49 13 q21 12 21 38 l0 692 q0 1 -1 2 q12 19 23 39 q39 76 60 135 q7 24 -7 42 q-13 16 -37 24 q-25 7 -48 3 q-21 -4 -29 -29 ZM456 672 q-54 -40 -155 -91 q-24 -12 -25 -36 q-1 -24 10 -49 q12 -24 32 -35 q19 -13 44 -1 q40 22 76 46 q1 -6 6 -13 q10 -16 32 -17 l296 0 q21 0 32 17 q7 13 9 30 q37 -25 100 -59 q24 -12 44 1 q21 13 33 38 q12 24 10 46 q-3 24 -26 36 q-99 51 -150 88 q-60 43 -129 104 q-15 13 -26 17 q-21 7 -36 8 q-18 0 -38 -9 q-13 -4 -33 -26 q-54 -58 -106 -95 ZM729 587 l-188 0 q28 27 54 50 q27 28 43 27 q16 0 36 -28 q31 -27 55 -49 ZM321 388 l0 -528 q0 -24 19 -36 q16 -12 42 -12 q25 0 47 12 q19 12 19 36 l0 188 l93 0 l0 -64 q1 -34 -19 -33 q0 1 -1 1 q0 0 -1 0 q-33 0 -46 -16 q-10 -22 -12 -50 q0 -27 11 -46 q10 -22 38 -23 q28 -3 64 -1 q36 4 57 15 q36 19 36 93 l0 471 q-1 25 -16 40 q-19 19 -43 18 l-222 0 q-36 1 -51 -18 q-15 -21 -15 -47 ZM541 184 l0 -41 l-93 0 l0 41 l93 0 ZM541 289 l0 -10 l-93 0 l0 14 q-1 28 29 29 l31 0 q33 0 33 -33 ZM800 352 q0 22 -17 33 q-15 10 -38 10 q-22 0 -40 -11 q-16 -10 -16 -32 l0 -312 q0 -21 16 -32 q15 -10 38 -10 q22 0 40 11 q16 10 17 31 l0 312 ZM825 396 l0 -405 q0 -16 -12 -32 q-7 -7 -21 -11 q-12 0 -25 1 q-13 1 -23 3 q-27 1 -40 -18 q-13 -19 -16 -48 q-1 -27 9 -46 q12 -21 38 -23 q40 -6 67 -5 q28 0 60 8 q31 6 53 26 q21 18 34 46 q10 30 11 52 l0 452 q0 27 -21 40 q-18 12 -45 12 q-28 0 -49 -13 q-19 -12 -20 -39 l0 0 Z" /><glyph glyph-name="uni5143" unicode="&#x5143;" d="M196 763 q-27 0 -40 -20 q-12 -18 -12 -45 q0 -28 13 -49 q12 -21 39 -21 l636 0 q25 0 39 21 q12 18 12 45 q0 28 -13 49 q-12 19 -38 20 l-636 0 ZM928 503 l-832 0 q-27 0 -40 -20 q-12 -18 -12 -45 q0 -28 13 -49 q12 -21 39 -21 l201 0 l0 -132 q0 -25 -5 -48 q-4 -30 -17 -56 q-7 -22 -27 -50 q-21 -28 -42 -48 q-25 -22 -48 -35 q-22 -13 -50 -29 q-22 -12 -43 -20 q-25 -9 -32 -33 q-4 -22 4 -48 q9 -27 28 -41 q19 -18 45 -9 q22 7 60 27 q34 16 73 43 q28 19 61 52 q25 25 50 61 q28 40 45 82 q16 40 23 68 q7 36 10 84 l0 132 l141 0 l0 -428 q-1 -48 31 -77 q28 -25 72 -27 q100 1 201 0 q21 0 37 3 q13 1 26 10 q12 9 20 19 q18 28 21 63 q4 28 6 140 q-1 33 -13 47 q-13 16 -45 20 q-31 1 -49 -13 q-19 -18 -20 -43 q-3 -36 -5 -62 q-1 -19 -5 -36 q0 -13 -7 -17 q-7 -4 -48 -4 q-24 0 -52 0 q-21 1 -28 8 q-7 7 -7 27 l0 370 l220 0 q25 0 39 21 q12 18 12 45 q0 28 -13 49 q-12 19 -38 20 l0 0 Z" /><glyph glyph-name="uni5145" unicode="&#x5145;" d="M492 560 l436 0 q25 0 39 21 q12 18 12 45 q0 28 -13 49 q-12 19 -38 20 l-329 0 q1 13 -5 26 q-22 39 -43 62 q-18 22 -42 18 q-22 -1 -45 -20 q-22 -18 -30 -43 q-7 -22 8 -43 l-346 0 q-27 0 -40 -20 q-12 -18 -12 -45 q0 -28 13 -49 q12 -21 39 -21 l223 0 q-84 -88 -211 -179 q-16 -12 -23 -37 q-6 -24 3 -51 q9 -28 35 -41 q22 -10 50 -10 l116 9 l0 -27 q0 -24 -5 -46 q-4 -28 -16 -52 q-7 -21 -25 -47 q-19 -27 -41 -45 q-22 -21 -44 -33 q-22 -13 -48 -28 q-22 -12 -41 -19 q-25 -9 -32 -33 q-4 -22 4 -48 q9 -27 28 -41 q19 -18 45 -9 q21 7 57 26 q34 15 71 42 q28 19 58 49 q24 24 49 59 q28 39 43 79 q16 40 22 66 q7 34 10 80 l0 39 l123 10 l0 -329 q0 -49 33 -81 q28 -27 75 -27 q114 1 227 0 q22 0 39 3 q13 1 27 10 q13 10 21 21 q16 25 19 56 q4 25 3 123 q0 34 -13 50 q-13 16 -46 23 q-34 1 -53 -13 q-22 -18 -23 -45 q0 -25 -1 -45 q0 -13 -1 -26 q-1 -13 -8 -18 q-7 -4 -52 -4 q-33 0 -71 0 q-22 1 -30 8 q-7 9 -7 29 l0 276 l99 9 q4 1 10 1 q12 -24 22 -48 q10 -25 34 -29 q22 -4 48 6 q25 10 41 32 q13 19 3 44 q-40 87 -65 135 q-24 43 -57 94 q-15 22 -40 22 q-22 -1 -45 -16 q-22 -16 -33 -39 q-10 -21 5 -44 q6 -9 19 -32 l-387 -28 q87 82 143 153 q4 9 9 16 l0 0 Z" /><glyph glyph-name="uni5148" unicode="&#x5148;" d="M461 391 l-337 0 q-27 0 -40 -20 q-12 -18 -12 -45 q0 -28 13 -49 q12 -21 39 -21 l201 0 l0 -24 q0 -25 -5 -48 q-4 -28 -18 -55 q-7 -21 -27 -48 q-22 -28 -44 -47 q-25 -22 -49 -35 q-24 -13 -51 -29 q-24 -12 -45 -19 q-25 -9 -32 -33 q-6 -22 2 -48 q9 -27 28 -42 q19 -18 45 -10 q22 7 61 27 q36 16 75 43 q30 19 63 51 q25 25 52 61 q28 40 46 82 q16 40 23 67 q9 36 11 83 l0 24 l101 0 l0 -309 q-1 -49 32 -80 q28 -25 74 -27 q103 1 207 0 q22 0 39 3 q13 1 27 10 q13 10 21 21 q18 30 20 63 q4 28 2 139 q-1 34 -15 50 q-15 16 -47 20 q-34 0 -53 -15 q-19 -19 -20 -46 q0 -31 0 -55 q0 -16 -2 -33 q-1 -13 -8 -18 q-7 -4 -52 -4 q-25 0 -54 0 q-22 1 -29 8 q-7 9 -7 29 l0 244 l216 0 q25 0 39 21 q12 18 12 45 q0 28 -13 49 q-12 19 -38 20 l-316 0 l0 137 l256 0 q25 0 39 21 q12 18 12 45 q0 28 -13 49 q-12 19 -38 20 l-256 0 l0 89 q0 27 -21 40 q-18 12 -45 12 q-28 0 -49 -13 q-19 -12 -20 -39 l0 -89 l-139 0 q7 36 13 71 q1 27 -17 41 q-16 13 -44 17 q-28 1 -50 -9 q-21 -10 -24 -36 q-6 -64 -26 -121 q-19 -57 -61 -108 q-19 -18 -14 -42 q3 -22 22 -42 q19 -19 43 -26 q22 -7 42 11 q39 45 70 109 l185 0 l0 -137 Z" /><glyph glyph-name="uni514D" unicode="&#x514d;" d="M583 184 l280 0 q49 0 49 49 l0 257 q0 49 -49 49 l-151 0 q19 19 34 39 q49 67 60 124 q1 31 -9 49 q-9 13 -28 21 q-19 4 -65 1 l-328 1 q-28 0 -47 -6 q-22 -9 -35 -29 q-40 -54 -90 -94 q-45 -37 -138 -84 q-24 -10 -26 -35 q-1 -25 10 -50 q12 -24 31 -35 q19 -13 44 -1 q4 3 12 5 l0 -212 q0 -49 49 -49 l256 0 q-6 -19 -14 -38 q-21 -37 -57 -69 q-37 -28 -102 -54 q-70 -27 -181 -49 q-28 -3 -40 -26 q-12 -22 -9 -51 q3 -30 19 -52 q16 -21 45 -18 q126 21 225 52 q91 31 160 86 q21 19 37 41 l0 -62 q-1 -48 31 -77 q28 -25 72 -27 q129 1 257 0 q21 0 37 3 q13 1 26 10 q12 9 20 19 q12 21 15 46 q3 19 3 100 q3 33 -9 48 q-12 16 -43 24 q-31 3 -50 -10 q-21 -16 -23 -41 q-1 -19 -1 -32 q0 -10 -2 -19 q0 -13 -7 -17 q-7 -4 -48 -4 q-51 0 -108 0 q-21 1 -28 8 q-7 7 -7 27 l0 102 q0 27 -21 40 q-18 12 -45 12 q-7 0 -14 -1 q1 15 3 29 ZM284 539 q46 37 88 85 q16 19 44 18 l180 0 q12 0 17 -7 q3 -7 1 -21 q-3 -9 -26 -29 q-19 -18 -67 -46 l-237 0 ZM453 319 l-170 0 q-10 0 -11 11 l0 63 q0 10 11 11 l170 0 l0 -85 ZM588 404 l178 0 q10 0 11 -11 l0 -63 q0 -10 -11 -11 l-178 0 l0 85 Z" /><glyph glyph-name="uni5151" unicode="&#x5151;" d="M131 566 l0 -341 q0 -49 49 -49 l145 0 q-3 -34 -11 -58 q-13 -37 -32 -58 q-25 -30 -73 -57 q-46 -21 -124 -49 q-25 -9 -32 -33 q-4 -22 4 -48 q9 -27 29 -44 q19 -15 44 -6 q88 31 160 74 q73 48 108 94 q30 39 46 88 q10 40 16 97 l107 0 l0 -231 q-1 -49 32 -80 q28 -25 74 -27 q97 1 194 0 q22 0 38 3 q13 1 27 10 q12 10 20 20 q15 25 18 53 q4 22 3 117 q0 33 -12 49 q-13 16 -45 22 q-34 1 -52 -12 q-19 -18 -22 -44 q0 -24 0 -41 q0 -13 -2 -24 q0 -13 -8 -18 q-7 -4 -50 -4 q-18 0 -40 0 q-22 1 -29 8 q-7 7 -7 28 l0 171 l151 0 q49 0 49 49 l0 341 q0 49 -49 49 l-116 0 q31 58 49 107 q10 25 -6 45 q-13 19 -39 28 q-27 10 -53 5 q-22 -4 -33 -30 q-22 -61 -80 -155 l-121 0 q-1 1 -1 3 q-39 100 -82 163 q-15 22 -40 23 q-22 0 -46 -15 q-24 -16 -35 -40 q-10 -21 5 -44 q22 -34 47 -90 l-126 0 q-49 0 -49 -49 ZM756 480 q10 0 11 -11 l0 -147 q0 -10 -11 -11 l-475 0 q-10 0 -11 11 l0 147 q0 10 11 11 l475 0 Z" /><glyph glyph-name="uni5165" unicode="&#x5165;" d="M484 484 q-49 -111 -90 -180 q-36 -60 -87 -122 q-49 -63 -95 -101 q-55 -46 -153 -124 q-22 -16 -20 -40 q1 -25 18 -49 q16 -22 38 -30 q22 -10 45 6 q67 46 141 117 q67 63 128 139 q55 69 112 164 q19 31 35 61 q24 -49 52 -98 q118 -208 274 -387 q18 -21 42 -17 q25 4 47 22 q21 18 28 40 q7 24 -10 44 q-205 234 -304 421 q-87 165 -153 398 q-7 25 -31 32 q-21 6 -47 -2 q-25 -7 -43 -26 q-16 -18 -8 -43 q34 -114 81 -225 l0 0 Z" /><glyph glyph-name="uni5168" unicode="&#x5168;" d="M288 627 q-82 -61 -234 -125 q-25 -12 -28 -37 q-4 -25 8 -53 q12 -25 32 -38 q21 -13 47 -3 q31 15 68 34 q0 -25 13 -47 q12 -19 38 -20 l213 0 l0 -109 l-193 0 q-25 0 -39 -19 q-12 -18 -12 -44 q0 -27 13 -48 q12 -19 38 -20 l193 0 l0 -107 l-333 0 q-27 0 -40 -20 q-12 -18 -12 -45 q0 -28 13 -49 q12 -21 39 -21 l796 0 q25 0 39 21 q12 18 12 45 q0 28 -13 49 q-12 19 -38 20 l-328 0 l0 107 l208 0 q25 0 38 20 q12 18 12 44 q0 27 -13 48 q-12 19 -37 19 l-208 0 l0 109 l224 0 q25 0 38 20 q12 18 12 44 q0 4 -1 6 q28 -16 56 -28 q25 -12 46 2 q22 15 35 41 q12 25 8 49 q-3 25 -28 37 q-145 61 -225 122 q-82 64 -125 115 q-49 57 -104 57 q-55 1 -98 -55 q-43 -55 -130 -121 ZM744 480 q7 -4 14 -11 l-475 0 q13 10 30 21 q81 64 125 116 q45 54 78 54 q34 0 78 -50 q37 -46 150 -130 l0 0 Z" /><glyph glyph-name="uni516C" unicode="&#x516c;" d="M301 773 q-55 -121 -119 -225 q-67 -91 -145 -176 q-19 -18 -16 -42 q4 -25 24 -46 q19 -21 41 -27 q22 -6 44 12 q66 73 141 181 q73 106 155 274 q10 25 -3 44 q-13 18 -39 28 q-25 10 -50 6 q-24 -4 -33 -29 ZM604 727 q48 -139 123 -266 q70 -114 161 -211 q18 -19 42 -16 q25 4 46 24 q21 19 27 41 q6 24 -12 44 q-114 121 -170 218 q-49 85 -90 209 q-7 25 -32 31 q-21 6 -47 -3 q-25 -9 -42 -28 q-15 -18 -6 -43 ZM417 382 q-93 -196 -302 -420 q-15 -13 -18 -38 q-3 -24 8 -49 q13 -27 40 -37 q22 -7 49 -3 l588 61 q7 1 14 1 q16 -28 32 -55 q13 -22 37 -24 q22 -1 47 11 q24 13 37 36 q12 21 -1 45 q-67 115 -110 177 q-40 55 -94 122 q-16 21 -41 17 q-22 -1 -43 -20 q-22 -18 -30 -42 q-7 -22 10 -43 q19 -22 74 -101 l-398 -38 q145 186 221 336 q13 31 7 55 q-4 21 -43 36 q-34 13 -54 6 q-19 -9 -30 -33 l0 0 Z" /><glyph glyph-name="uni5173" unicode="&#x5173;" d="M940 359 l-360 0 l0 113 l296 0 q25 0 39 21 q12 18 12 45 q0 28 -13 49 q-12 19 -38 20 l-134 0 q34 63 53 115 q9 25 -7 46 q-13 18 -40 27 q-27 10 -52 5 q-24 -4 -33 -31 q-22 -64 -81 -161 q-1 0 -1 -1 l-137 0 q0 10 -4 22 q-42 94 -86 155 q-16 22 -41 20 q-22 0 -46 -17 q-22 -16 -33 -40 q-10 -22 6 -45 q25 -34 55 -95 l-151 0 q-27 0 -40 -20 q-12 -18 -12 -45 q0 -28 13 -49 q12 -21 39 -21 l301 0 l0 -113 l-357 0 q-27 0 -40 -20 q-12 -18 -12 -45 q0 -28 13 -49 q12 -21 39 -21 l333 0 q-4 -10 -11 -23 q-13 -30 -43 -68 q-33 -39 -68 -66 q-39 -31 -75 -48 q-37 -19 -81 -40 q-37 -16 -69 -27 q-27 -7 -34 -31 q-7 -21 0 -48 q7 -28 25 -43 q18 -19 44 -13 q31 10 87 34 q51 21 107 55 q43 25 89 65 q37 31 74 78 q28 37 50 73 q6 -7 12 -17 q51 -76 119 -136 q46 -40 126 -83 q85 -42 145 -66 q25 -10 45 5 q19 15 31 42 q10 25 5 48 q-4 24 -30 34 q-61 24 -127 49 q-58 27 -93 53 q-40 30 -70 65 q-28 34 -52 70 q-10 16 -20 38 l333 0 q25 0 39 21 q12 18 12 45 q0 28 -13 49 q-12 19 -38 20 l0 0 Z" /><glyph glyph-name="uni5176" unicode="&#x5176;" d="M796 179 l0 427 l76 0 q25 0 38 20 q12 18 12 44 q0 27 -13 48 q-12 19 -37 19 l-76 0 l0 15 q0 27 -21 40 q-18 12 -45 12 q-28 0 -49 -13 q-19 -12 -20 -39 l0 -15 l-301 0 l0 19 q0 27 -21 40 q-18 12 -45 12 q-28 0 -49 -13 q-19 -12 -20 -39 l0 -19 l-73 0 q-25 0 -39 -19 q-12 -18 -12 -44 q0 -27 13 -48 q12 -19 38 -20 l73 0 l0 -427 l-113 0 q-27 0 -40 -20 q-12 -18 -12 -45 q0 -28 13 -49 q12 -21 39 -21 l800 0 q25 0 39 21 q12 18 12 45 q0 28 -13 49 q-12 19 -38 20 l-116 0 ZM661 230 l0 -51 l-301 0 l0 51 l301 0 ZM661 418 l0 -57 l-301 0 l0 57 l301 0 ZM661 606 l0 -57 l-301 0 l0 57 l301 0 ZM678 -105 q88 -16 228 -76 q24 -10 45 3 q19 10 30 36 q12 25 9 51 q-3 22 -27 34 q-147 64 -259 85 q-25 6 -43 -12 q-16 -16 -21 -43 q-4 -27 4 -50 q7 -22 34 -28 ZM319 16 q-55 -28 -110 -47 q-51 -13 -104 -21 q-27 -1 -38 -22 q-12 -22 -11 -49 q1 -27 14 -45 q13 -19 40 -19 q52 7 119 26 q66 18 155 58 q25 13 26 37 q0 22 -13 46 q-13 24 -35 37 q-19 10 -43 -1 l0 0 Z" /><glyph glyph-name="uni5177" unicode="&#x5177;" d="M860 167 l0 526 q0 42 -22 68 q-22 22 -68 22 l-443 0 l-71 0 q-43 1 -69 -22 q-22 -22 -22 -69 l0 -525 l-89 0 q-27 0 -40 -20 q-12 -18 -12 -45 q0 -28 13 -49 q12 -21 39 -21 l225 0 q-55 -28 -108 -48 q-55 -16 -115 -26 q-27 -1 -38 -24 q-10 -22 -9 -51 q1 -28 16 -46 q13 -19 42 -18 q55 10 127 33 q70 22 166 71 q24 13 25 37 q-1 22 -14 46 q-10 16 -24 26 l282 0 q-3 -1 -4 -3 q-16 -16 -22 -42 q-7 -27 1 -51 q7 -22 34 -28 q97 -22 248 -92 q24 -12 45 1 q19 10 31 36 q13 25 10 50 q-1 24 -25 36 q-138 64 -247 93 l218 0 q25 0 39 21 q12 18 12 45 q0 28 -13 49 q-12 19 -38 20 l-80 0 ZM725 204 l0 -37 l-425 0 l0 37 l425 0 ZM725 356 l0 -41 l-425 0 l0 41 l425 0 ZM725 504 l0 -37 l-425 0 l0 37 l425 0 ZM695 656 q21 1 25 -4 q4 -4 5 -25 l0 -12 l-425 0 l0 14 q0 18 6 23 q6 4 21 4 l368 0 Z" /><glyph glyph-name="uni517B" unicode="&#x517b;" d="M932 395 l-430 0 q6 13 12 25 l342 0 q21 0 32 17 q10 15 10 38 q0 22 -11 40 q-10 16 -31 16 l-296 0 q4 15 10 29 l338 0 q24 0 36 20 q12 16 12 42 q0 25 -12 47 q-12 18 -36 18 l-145 0 q9 19 17 37 q10 25 -4 44 q-13 19 -38 29 q-25 10 -50 7 q-24 -4 -34 -28 q-15 -37 -48 -89 l-162 0 q-1 4 -3 8 q-30 55 -59 91 q-16 19 -41 17 q-22 -1 -43 -19 q-22 -16 -30 -41 q-7 -22 8 -43 q4 -4 10 -13 l-170 0 q-25 0 -37 -19 q-12 -16 -12 -42 q0 -25 12 -47 q12 -19 37 -19 l313 0 q-4 -13 -11 -29 l-258 0 q-22 0 -33 -16 q-10 -15 -10 -38 q0 -22 11 -40 q10 -16 32 -17 l204 0 q-7 -12 -17 -25 l-255 0 q-25 0 -37 -19 q-12 -16 -12 -42 q0 -25 12 -47 q12 -19 37 -19 l106 0 q-60 -24 -146 -57 q-25 -7 -32 -31 q-7 -25 1 -52 q7 -27 25 -41 q19 -16 45 -9 q52 13 113 39 q45 19 81 38 l0 -27 q0 -43 -11 -71 q-10 -21 -26 -38 q-16 -16 -45 -31 q-31 -15 -80 -27 q-28 -7 -37 -32 q-9 -22 -2 -51 q7 -30 26 -49 q18 -19 46 -13 q69 15 122 37 q51 21 87 60 q31 37 43 82 q10 48 12 133 l0 56 q0 27 -21 40 q-7 4 -16 7 q7 7 17 16 q7 10 17 21 l182 0 q21 -22 43 -43 q-4 -10 -5 -25 l0 -336 q0 -25 20 -39 q18 -12 45 -12 q28 0 49 13 q21 12 21 38 l0 260 q90 -55 161 -75 q27 -7 44 10 q19 18 26 45 q7 27 0 49 q-7 24 -33 31 q-88 28 -156 66 q-13 9 -28 18 l146 0 q24 0 36 20 q12 16 12 42 q0 25 -12 47 q-12 18 -36 18 l0 0 Z" /><glyph glyph-name="uni5185" unicode="&#x5185;" d="M73 578 l0 -706 q0 -25 20 -39 q18 -12 45 -12 q28 0 49 13 q21 12 21 38 l0 209 q4 -4 12 -10 q21 -16 46 -7 q21 9 58 30 q34 16 71 47 q28 22 60 56 q24 28 49 67 q1 4 5 8 q127 -105 214 -187 q19 -19 44 -14 q22 4 43 25 q1 1 3 3 l0 -98 q0 -34 -14 -32 q-19 -7 -46 -4 q-25 -1 -45 -3 q-34 1 -49 -14 q-12 -22 -15 -51 q-1 -28 9 -48 q10 -22 38 -26 q51 -6 113 -6 q63 4 102 23 q42 21 42 98 l0 648 q-1 25 -17 43 q-19 19 -45 18 l-306 0 l0 101 q0 27 -21 40 q-18 12 -45 12 q-28 0 -49 -13 q-19 -12 -20 -39 l0 -101 l-303 0 q-37 0 -53 -19 q-16 -22 -16 -50 ZM813 194 q-106 85 -254 195 q7 22 11 40 q7 36 9 83 l200 0 q33 0 34 -33 l0 -285 ZM208 482 q0 31 31 30 l205 0 q0 -24 -4 -48 q-4 -34 -17 -63 q-7 -25 -27 -57 q-21 -33 -42 -55 q-25 -25 -47 -40 q-24 -16 -50 -33 q-24 -13 -44 -23 q-4 -1 -5 -3 l0 292 Z" /><glyph glyph-name="uni518D" unicode="&#x518d;" d="M912 771 l-808 0 q-27 0 -40 -20 q-12 -18 -12 -45 q0 -28 13 -49 q12 -21 39 -21 l345 0 l0 -49 l-259 0 q-37 0 -53 -19 q-16 -22 -16 -50 l0 -311 l-49 0 q-27 0 -40 -20 q-12 -18 -12 -45 q0 -28 13 -49 q12 -21 39 -21 l49 0 l0 -208 q0 -25 20 -39 q18 -12 45 -12 q28 0 49 13 q21 12 21 38 l0 208 l525 0 l0 -75 q0 -30 -12 -29 q-19 -4 -48 -1 q-25 -1 -46 -1 q-34 3 -49 -12 q-13 -22 -18 -50 q-1 -28 7 -49 q10 -22 37 -28 q52 -9 115 -11 q64 1 104 19 q45 21 45 99 l0 138 l36 0 q25 0 39 21 q12 18 12 45 q0 28 -13 49 q-12 19 -38 20 l-36 0 l0 319 q-1 25 -17 43 q-19 19 -45 18 l-270 0 l0 49 l328 0 q25 0 39 21 q12 18 12 45 q0 28 -13 49 q-12 19 -38 20 ZM781 266 l0 -59 l-197 0 l0 59 l197 0 ZM449 266 l0 -59 l-193 0 l0 59 l193 0 ZM449 397 l-193 0 l0 25 q0 31 31 30 l162 0 l0 -55 ZM584 452 l163 0 q33 0 34 -33 l0 -22 l-197 0 l0 55 Z" /><glyph glyph-name="uni51B5" unicode="&#x51b5;" d="M27 677 q48 -75 102 -211 q9 -25 34 -31 q22 -6 49 4 q27 10 43 30 q16 19 6 45 q-55 145 -118 239 q-15 22 -40 23 q-22 0 -46 -15 q-24 -16 -35 -40 q-10 -21 5 -44 ZM167 239 q-22 -93 -54 -174 q-36 -72 -80 -141 q-16 -22 -8 -44 q9 -25 31 -42 q22 -16 44 -19 q25 -3 42 18 q40 63 81 152 q42 88 81 221 q6 28 -12 45 q-16 16 -44 21 q-28 6 -52 -3 q-22 -7 -29 -34 ZM897 759 l-561 0 q-49 0 -49 -49 l0 -365 q0 -49 49 -49 l101 0 l0 -68 q0 -24 -4 -47 q-4 -28 -13 -54 q-7 -21 -21 -47 q-16 -28 -34 -47 q-19 -21 -37 -34 q-18 -13 -39 -28 q-18 -12 -34 -19 q-25 -10 -28 -36 q-4 -22 7 -48 q12 -25 32 -38 q21 -16 46 -5 q18 7 48 26 q28 16 59 42 q24 19 49 50 q19 24 41 59 q22 40 36 79 q13 40 18 66 q7 34 9 81 l0 68 l69 0 l0 -352 q-1 -48 31 -77 q28 -25 72 -27 q73 1 145 0 q21 0 37 3 q13 1 26 10 q12 9 20 19 q15 25 17 55 q4 24 2 119 q0 33 -13 48 q-13 15 -44 20 q-31 1 -49 -13 q-19 -16 -21 -42 q0 -27 0 -45 q0 -13 -2 -26 q0 -13 -7 -17 q-7 -4 -48 -4 q1 0 4 0 q-21 1 -28 8 q-7 7 -7 27 l0 294 l121 0 q49 0 49 49 l0 365 q0 49 -49 49 ZM796 624 q10 0 11 -11 l0 -171 q0 -10 -11 -11 l-359 0 q-10 0 -11 11 l0 171 q0 10 11 11 l359 0 Z" /><glyph glyph-name="uni51C6" unicode="&#x51c6;" d="M24 694 q39 -73 80 -203 q7 -25 31 -34 q22 -7 49 1 q28 7 45 26 q16 18 10 45 q-42 141 -93 232 q-13 24 -38 25 q-22 1 -47 -11 q-25 -13 -38 -36 q-13 -21 1 -45 ZM151 243 q-19 -94 -47 -176 q-31 -73 -73 -146 q-16 -22 -6 -44 q10 -24 33 -41 q22 -16 45 -17 q25 -1 41 21 q37 64 74 156 q37 90 70 226 q6 28 -13 44 q-18 13 -46 19 q-28 4 -52 -6 q-22 -9 -26 -36 ZM441 -156 l491 0 q25 0 39 21 q12 18 12 45 q0 28 -13 49 q-12 19 -38 20 l-176 0 l0 83 l124 0 q25 0 38 20 q12 18 12 44 q0 27 -13 48 q-12 19 -37 19 l-124 0 l0 81 l132 0 q25 0 38 20 q12 18 12 44 q0 27 -13 48 q-12 19 -37 19 l-132 0 l0 87 l176 0 q25 0 39 21 q12 18 12 45 q0 28 -13 49 q-12 19 -38 20 l-151 0 q-1 7 -4 16 q-40 76 -79 123 q-16 19 -41 17 q-22 -1 -43 -19 q-22 -16 -30 -41 q-7 -22 9 -43 q16 -19 36 -53 l-149 0 q19 49 41 104 q7 25 -8 44 q-16 16 -42 23 q-27 7 -51 0 q-22 -6 -30 -32 q-31 -97 -70 -182 q-43 -75 -95 -147 q-18 -19 -10 -42 q7 -24 27 -42 q19 -18 42 -21 q24 -4 42 16 q1 3 3 5 l0 -396 q-1 -52 27 -84 q28 -28 85 -29 ZM621 62 l0 -83 l-117 0 q-27 1 -34 9 q-7 7 -6 32 l0 42 l157 0 ZM464 193 l0 81 l157 0 l0 -81 l-157 0 ZM464 405 l0 53 q-1 22 7 28 q7 6 27 6 l123 0 l0 -87 l-157 0 Z" /><glyph glyph-name="uni51CF" unicode="&#x51cf;" d="M31 663 q40 -64 83 -183 q9 -25 33 -31 q21 -6 47 3 q25 9 43 28 q15 18 7 43 q-46 129 -97 212 q-13 22 -39 23 q-22 0 -45 -14 q-22 -13 -35 -37 q-10 -21 3 -44 ZM120 288 q-10 -105 -32 -198 q-28 -84 -65 -167 q-13 -24 -1 -45 q12 -22 37 -36 q24 -13 47 -13 q24 1 38 25 q31 73 62 176 q28 100 49 251 q3 27 -17 41 q-19 12 -46 14 q-28 1 -50 -11 q-21 -10 -22 -37 ZM660 105 l0 217 q0 49 -49 49 l-137 0 q-49 0 -49 -49 l0 -217 q0 -49 49 -49 l137 0 q49 0 49 49 ZM520 265 q0 10 11 11 l23 0 q10 0 11 -11 l0 -103 q0 -10 -11 -11 l-23 0 q-10 0 -11 11 l0 103 ZM269 584 l0 -344 q0 -94 -20 -183 q-21 -73 -57 -136 q-16 -19 -10 -43 q7 -22 40 -48 q34 -22 55 -14 q16 10 34 32 q25 36 48 89 q21 58 32 124 q13 73 13 138 l0 215 q10 -13 32 -14 l196 0 q21 0 32 16 q1 -7 2 -17 q19 -174 46 -293 q-37 -43 -87 -78 q-64 -43 -129 -82 q-24 -10 -27 -34 q-3 -25 8 -50 q10 -25 30 -36 q19 -13 44 -3 q103 49 165 99 q19 16 38 36 q15 -37 30 -64 q25 -43 55 -65 q21 -13 57 -13 q25 1 42 14 q16 16 31 65 q31 124 32 253 q0 18 -14 26 q-12 9 -30 9 q-18 0 -33 -8 q-13 -7 -14 -26 q-1 -36 -4 -80 q-1 -30 -12 -30 q-10 0 -27 51 q-3 7 -5 14 q37 61 63 122 q46 115 63 220 q4 25 -13 41 q-16 13 -42 19 q-25 4 -49 -5 q-21 -7 -25 -34 q-18 -102 -42 -170 q-10 49 -16 98 q-12 78 -19 153 l166 0 q25 0 39 21 q12 18 12 45 q0 28 -13 49 q-10 16 -29 19 q0 1 1 1 q9 19 -5 41 q-19 25 -33 40 q-10 12 -26 27 q-19 16 -41 12 q-21 -4 -39 -23 q-18 -19 -23 -42 q-4 -22 13 -40 q3 -3 15 -15 l-45 0 q-1 34 0 69 q0 25 -20 39 q-18 12 -44 12 q-27 0 -48 -13 q-19 -12 -19 -38 q0 -33 1 -69 l-277 0 q-52 0 -74 -22 q-25 -28 -24 -77 ZM651 548 q1 -16 3 -35 q-9 6 -22 6 l-196 0 q-21 0 -32 -13 l0 12 q-1 30 29 30 l218 0 Z" /><glyph glyph-name="uni51FB" unicode="&#x51fb;" d="M181 -152 l647 0 q40 0 65 25 q24 28 25 65 l0 210 q0 28 -22 41 q-19 13 -46 13 q-28 0 -51 -14 q-19 -12 -20 -40 l0 -135 q-1 -19 -6 -25 q-4 -4 -23 -5 l-168 0 l0 293 l342 0 q25 0 39 21 q12 18 12 45 q0 28 -13 49 q-12 19 -38 20 l-342 0 l0 109 l270 0 q25 0 39 21 q12 18 12 45 q0 28 -13 49 q-12 19 -38 20 l-270 0 l0 93 q0 28 -22 41 q-19 13 -46 13 q-28 0 -51 -14 q-19 -12 -20 -40 l0 -93 l-275 0 q-27 0 -40 -20 q-12 -18 -12 -45 q0 -28 13 -49 q12 -21 39 -21 l275 0 l0 -109 l-343 0 q-27 0 -40 -20 q-12 -18 -12 -45 q0 -28 13 -49 q12 -21 39 -21 l343 0 l0 -293 l-179 0 q-12 1 -17 8 q-4 6 -5 15 l0 142 q0 28 -22 41 q-19 13 -46 13 q-28 0 -51 -14 q-19 -12 -20 -40 l0 -221 q0 -34 21 -56 q22 -22 57 -23 l0 0 Z" /><glyph glyph-name="uni5206" unicode="&#x5206;" d="M603 719 q55 -112 135 -213 q72 -90 160 -162 q21 -18 44 -10 q25 7 43 29 q18 22 21 44 q3 25 -17 42 q-109 88 -167 164 q-51 67 -98 165 q-12 24 -36 27 q-22 1 -46 -9 q-25 -13 -38 -34 q-13 -19 -1 -43 ZM137 -172 q109 64 163 109 q67 58 111 120 q42 58 65 135 q16 52 24 104 l174 0 q21 0 28 -6 q7 -7 7 -26 q0 -69 -5 -156 q-6 -85 -24 -110 q-16 -27 -47 -39 q-28 -9 -55 -4 q-28 6 -87 19 q-25 9 -45 -6 q-19 -16 -29 -43 q-9 -27 -4 -49 q6 -24 31 -33 q61 -19 134 -22 q73 -3 119 11 q61 19 90 52 q34 37 48 113 q13 112 13 298 q-1 55 -10 83 q-13 28 -38 41 q-25 12 -83 12 l-505 0 q-6 0 -10 -2 q25 30 52 63 q67 87 143 224 q12 25 -1 45 q-13 19 -38 30 q-25 10 -50 8 q-22 -1 -34 -26 q-51 -97 -107 -180 q-58 -72 -127 -138 q-21 -16 -18 -41 q3 -25 21 -48 q18 -22 39 -29 q24 -7 45 9 q16 18 35 38 q-1 -10 -2 -22 q0 -27 12 -45 q13 -21 40 -21 l149 0 q-6 -37 -17 -69 q-15 -48 -51 -98 q-33 -49 -86 -90 q-55 -39 -137 -90 q-24 -13 -25 -38 q-1 -22 11 -47 q13 -24 36 -37 q21 -13 45 1 l0 0 Z" /><glyph glyph-name="uni5219" unicode="&#x5219;" d="M764 644 q0 27 -21 40 q-18 12 -45 12 q-28 0 -49 -13 q-19 -12 -20 -39 l0 -516 q0 -25 20 -39 q18 -12 45 -12 q28 0 49 13 q21 12 21 38 l0 516 ZM825 752 l0 -757 q0 -16 -12 -32 q-10 -10 -31 -14 q-19 1 -40 3 q-19 4 -36 8 q-27 1 -40 -17 q-15 -19 -18 -47 q-3 -27 8 -47 q10 -21 37 -24 q51 -10 84 -11 q34 -1 74 6 q37 6 64 30 q21 18 34 46 q10 30 11 52 l0 804 q0 27 -21 40 q-18 12 -45 12 q-28 0 -49 -13 q-19 -12 -20 -39 ZM378 -76 q46 -30 112 -97 q19 -19 44 -13 q22 4 42 24 q19 19 26 45 q6 22 -13 43 q-75 73 -136 111 q-22 15 -45 4 q-19 -7 -35 -31 q-15 -22 -16 -48 q-1 -22 21 -38 ZM73 674 l0 -522 q0 -25 20 -39 q18 -12 45 -12 q28 0 49 13 q21 12 21 38 l0 452 q0 18 6 24 q6 4 22 4 l175 0 q21 0 26 -4 q4 -6 4 -26 l0 -450 q0 -25 20 -39 q18 -12 45 -12 q28 0 49 13 q21 12 21 38 l0 522 q0 43 -23 70 q-22 22 -70 23 l-247 0 l-70 0 q-43 1 -70 -22 q-22 -22 -23 -71 ZM257 528 l0 -324 q0 -22 -4 -43 q-4 -27 -15 -50 q-6 -19 -22 -44 q-16 -25 -35 -42 q-21 -19 -40 -32 q-19 -13 -42 -26 q-19 -10 -36 -17 q-25 -10 -31 -34 q-4 -22 5 -49 q10 -25 30 -40 q19 -16 45 -8 q19 7 52 25 q30 15 63 41 q25 18 53 47 q22 22 44 56 q25 37 39 76 q15 37 20 63 q7 33 9 77 l0 324 q0 27 -21 40 q-18 12 -45 12 q-28 0 -49 -13 q-19 -12 -20 -39 l0 0 Z" /><glyph glyph-name="uni521D" unicode="&#x521d;" d="M980 170 q10 142 12 461 q0 52 -24 76 q-25 24 -82 24 l-366 0 q-27 0 -39 -20 q-13 -21 -13 -49 q0 -27 12 -45 q13 -21 40 -21 l77 0 l0 -96 q0 -49 -4 -94 q-4 -58 -17 -109 q-7 -42 -25 -96 q-19 -55 -40 -92 q-22 -43 -44 -68 q-22 -28 -47 -57 q-22 -24 -41 -39 q-22 -16 -21 -40 q1 -22 17 -46 q16 -22 39 -31 q22 -12 46 4 q18 12 50 43 q28 25 62 70 q25 31 51 82 q21 40 43 98 q24 66 38 132 q13 64 19 109 q7 57 9 134 l0 96 l86 0 q19 0 27 -7 q7 -7 7 -32 q1 -138 -3 -296 q-7 -163 -15 -213 q-9 -49 -28 -65 q-19 -10 -63 -5 q-39 6 -66 13 q-28 7 -48 -12 q-19 -21 -27 -51 q-7 -30 2 -53 q9 -25 38 -33 q57 -18 134 -19 q75 1 113 31 q45 33 61 95 q19 76 30 221 ZM454 456 q-4 -7 -20 -27 q-16 -19 -30 -34 q-16 -16 -12 -37 q4 -19 20 -36 q16 -16 38 -22 q19 -6 37 11 q25 27 38 43 q12 16 26 36 q13 19 4 38 q-7 18 -26 31 q-19 13 -42 14 q-19 1 -33 -17 ZM203 246 l0 -382 q0 -27 21 -40 q19 -13 46 -13 q28 0 51 14 q21 12 21 39 l0 310 q12 -16 24 -33 q16 -22 40 -20 q22 0 44 16 q22 16 32 39 q9 21 -6 42 q-55 64 -135 146 q19 19 38 40 q57 72 82 131 q16 46 1 80 q-15 36 -55 40 l-67 0 q-1 1 -1 4 q-40 79 -79 127 q-16 22 -42 19 q-22 -1 -45 -19 q-22 -18 -31 -42 q-9 -22 8 -45 q13 -16 30 -44 l-108 0 q-27 0 -39 -20 q-13 -21 -13 -49 q0 -27 12 -45 q13 -21 40 -21 l213 0 q7 0 13 -1 q4 -3 2 -6 q-7 -19 -57 -72 q-64 -61 -194 -131 q-25 -7 -31 -32 q-4 -25 4 -52 q9 -25 27 -40 q19 -16 45 -7 q54 31 109 67 l0 0 Z" /><glyph glyph-name="uni522B" unicode="&#x522b;" d="M497 771 l-270 0 l-83 0 q-43 1 -62 -20 q-19 -21 -19 -61 l0 -220 q-1 -49 16 -70 q21 -22 65 -24 l79 0 l0 -53 l-139 0 q-27 0 -39 -20 q-13 -21 -13 -49 q0 -27 12 -45 q13 -21 40 -21 l128 0 q-3 -13 -6 -28 q-6 -25 -20 -58 q-16 -34 -33 -57 q-19 -27 -36 -41 q-18 -18 -38 -35 q-18 -15 -33 -24 q-24 -13 -25 -38 q-1 -22 11 -47 q13 -25 35 -35 q22 -13 46 -1 q16 7 46 30 q27 16 57 48 q22 22 47 56 q19 28 39 68 q22 45 35 91 q10 43 16 71 l86 0 q16 0 22 -5 q7 -6 7 -26 q0 -46 -3 -99 q-4 -55 -11 -72 q-6 -16 -20 -22 q-16 -4 -43 2 q-24 6 -40 11 q-28 10 -48 -8 q-22 -18 -32 -48 q-9 -28 -2 -53 q6 -27 35 -36 q37 -13 97 -18 q60 -3 100 11 q49 16 68 48 q22 37 33 111 q12 70 14 230 q0 58 -23 83 q-25 25 -79 26 l-152 0 l0 53 l135 0 q49 1 71 25 q22 22 22 69 l0 220 q-1 46 -26 65 q-25 16 -67 16 ZM227 511 q-13 0 -19 7 q-6 4 -6 30 l0 63 q0 16 4 21 q4 4 21 4 l188 0 q22 0 29 -4 q7 -4 7 -21 l0 -63 q0 -28 -3 -33 q-4 -3 -33 -4 l-188 0 ZM788 636 q0 27 -21 40 q-18 12 -45 12 q-28 0 -49 -13 q-19 -12 -20 -39 l0 -540 q0 -25 20 -39 q18 -12 45 -12 q28 0 49 13 q21 12 21 38 l0 540 ZM835 748 l0 -750 q0 -16 -12 -33 q-12 -10 -35 -12 q-22 4 -47 8 q-22 7 -43 12 q-27 4 -42 -14 q-16 -19 -21 -48 q-4 -28 5 -48 q10 -22 37 -27 q58 -16 96 -19 q40 -4 84 1 q43 4 71 31 q21 18 35 47 q10 31 11 54 l0 798 q0 28 -22 41 q-19 13 -46 13 q-28 0 -51 -14 q-19 -12 -20 -40 l0 0 Z" /><glyph glyph-name="uni5230" unicode="&#x5230;" d="M584 763 l-504 0 q-27 0 -40 -20 q-12 -18 -12 -45 q0 -28 13 -49 q12 -21 39 -21 l109 0 q-52 -100 -148 -212 q-15 -13 -17 -38 q-1 -22 11 -47 q13 -25 39 -33 q22 -7 48 -2 l129 13 l0 -82 l-143 0 q-27 0 -40 -20 q-12 -18 -12 -45 q0 -28 13 -49 q12 -21 39 -21 l143 0 l0 -110 q-94 -6 -172 -8 q-27 0 -40 -21 q-13 -19 -13 -47 q0 -28 14 -50 q12 -21 40 -21 q120 1 310 20 q127 10 202 30 q25 6 34 30 q7 21 1 48 q-6 28 -25 46 q-16 18 -43 11 q-61 -13 -169 -26 l0 98 l142 0 q25 0 39 21 q12 18 12 45 q0 28 -13 49 q-12 19 -38 20 l-142 0 l0 96 l121 12 q6 -13 11 -26 q9 -24 32 -29 q21 -4 46 4 q25 10 41 29 q15 18 6 43 q-33 79 -54 124 q-19 40 -48 89 q-13 22 -37 22 q-22 1 -44 -13 q-24 -13 -35 -36 q-10 -19 3 -43 q6 -10 22 -42 l-227 -19 q67 100 103 181 q1 4 3 9 l251 0 q25 0 39 21 q12 18 12 45 q0 28 -13 49 q-12 19 -38 20 ZM804 608 q0 27 -21 40 q-18 12 -45 12 q-28 0 -49 -13 q-19 -12 -20 -39 l0 -500 q0 -25 20 -39 q18 -12 45 -12 q28 0 49 13 q21 12 21 38 l0 500 ZM839 748 l0 -750 q0 -16 -12 -33 q-10 -9 -31 -13 q-19 1 -40 5 q-19 4 -37 9 q-27 3 -41 -17 q-16 -19 -19 -48 q-4 -28 7 -48 q10 -22 38 -26 q52 -10 86 -13 q36 -1 76 5 q40 4 66 30 q21 18 35 47 q10 31 11 54 l0 798 q0 28 -22 41 q-19 13 -46 13 q-28 0 -51 -14 q-19 -12 -20 -40 l0 0 Z" /><glyph glyph-name="uni5236" unicode="&#x5236;" d="M61 234 l0 -262 q0 -25 20 -39 q18 -12 45 -12 q28 0 49 13 q21 12 21 38 l0 166 q0 31 31 30 l46 0 l0 -300 q0 -25 20 -39 q18 -12 45 -12 q28 0 49 13 q21 12 21 38 l0 20 q6 0 10 -1 q37 -3 83 -1 q46 4 75 19 q40 21 40 97 l0 240 q-1 25 -17 43 q-19 19 -45 18 l-146 0 l0 49 l172 0 q25 0 39 21 q12 18 12 45 q0 28 -13 49 q-12 19 -38 20 l-172 0 l0 63 l144 0 q25 0 38 20 q12 18 12 44 q0 27 -13 48 q-12 19 -37 19 l-144 0 l0 71 q0 27 -21 40 q-18 12 -45 12 q-28 0 -49 -13 q-19 -12 -20 -39 l0 -71 l-41 0 q7 21 15 44 q7 25 -9 43 q-16 15 -41 21 q-27 6 -50 -2 q-21 -6 -27 -31 q-16 -58 -38 -109 q-24 -45 -53 -89 q-16 -19 -9 -41 q7 -22 29 -40 q3 -1 6 -5 q-1 -1 -3 -5 q-12 -18 -12 -45 q0 -28 13 -49 q12 -21 39 -21 l181 0 l0 -49 l-143 0 q-37 0 -53 -19 q-16 -22 -16 -50 ZM481 65 q0 -37 -17 -36 q-7 -3 -18 -1 q-10 -1 -17 -2 q-13 1 -21 -2 l0 144 l39 0 q33 0 34 -33 l0 -70 ZM137 487 q18 28 37 63 l99 0 l0 -63 l-136 0 ZM790 612 q0 25 -20 39 q-18 12 -44 12 q-27 0 -48 -13 q-19 -12 -19 -38 l0 -516 q0 -25 19 -38 q18 -12 44 -12 q27 0 48 13 q19 12 20 37 l0 516 ZM833 752 l0 -761 q0 -16 -12 -32 q-9 -7 -25 -11 q-16 1 -34 5 q-16 4 -31 7 q-25 3 -40 -16 q-16 -19 -19 -47 q-3 -27 7 -47 q10 -22 37 -25 q46 -10 78 -11 q33 -1 70 5 q34 4 59 27 q21 18 34 46 q10 30 11 52 l0 808 q0 27 -21 40 q-18 12 -45 12 q-28 0 -49 -13 q-19 -12 -20 -39 l0 0 Z" /><glyph glyph-name="uni5238" unicode="&#x5238;" d="M924 465 l-434 0 q9 18 18 37 l352 0 q25 0 38 20 q12 18 12 44 q0 27 -13 48 q-12 19 -37 19 l-79 0 q16 40 25 75 q7 25 -9 43 q-15 16 -41 24 q-27 7 -51 0 q-22 -6 -30 -32 q-12 -43 -44 -110 l-77 0 q18 58 28 109 q4 25 -14 42 q-16 15 -43 19 q-27 4 -50 -5 q-22 -9 -26 -35 q-16 -84 -28 -130 l-55 0 q1 9 -1 19 q-19 64 -45 108 q-12 22 -37 25 q-22 1 -45 -11 q-25 -13 -37 -35 q-12 -21 0 -44 q13 -22 26 -62 l-63 0 q-25 0 -39 -19 q-12 -18 -12 -44 q0 -27 13 -48 q12 -19 38 -20 l198 0 q-12 -18 -25 -37 l-245 0 q-25 0 -39 -19 q-12 -18 -12 -44 q0 -27 13 -48 q12 -19 38 -20 l110 0 q-19 -13 -42 -29 q-55 -34 -113 -75 q-24 -13 -25 -37 q-1 -25 11 -51 q13 -24 34 -35 q21 -13 45 0 q52 30 111 71 q3 -9 9 -17 q13 -21 40 -21 l105 0 q-4 -12 -9 -23 q-19 -43 -48 -71 q-31 -30 -79 -53 q-52 -21 -124 -39 q-28 -3 -38 -25 q-10 -22 -8 -52 q3 -27 17 -45 q15 -19 42 -17 q90 22 167 60 q67 33 112 79 q43 40 78 111 q19 40 29 75 l163 0 q13 0 19 -4 q4 -4 5 -18 q0 -37 -3 -81 q-6 -45 -13 -59 q-7 -13 -23 -18 q-24 -4 -58 1 q-31 4 -52 10 q-28 9 -47 -8 q-21 -18 -30 -47 q-9 -28 -2 -52 q7 -25 34 -34 q39 -12 102 -17 q63 -4 108 8 q57 15 78 42 q25 34 38 97 q12 58 15 183 q40 -21 76 -33 q25 -7 45 8 q19 16 28 44 q7 27 2 48 q-6 25 -32 33 q-85 31 -149 71 q-13 9 -27 20 l131 0 q25 0 38 20 q12 18 12 44 q0 27 -13 48 q-12 19 -37 19 ZM612 334 q28 -31 55 -59 l-327 0 q7 9 17 17 q19 22 39 42 l216 0 Z" /><glyph glyph-name="uni5242" unicode="&#x5242;" d="M546 212 q0 28 -22 41 q-19 13 -46 13 q-28 0 -51 -14 q-19 -12 -20 -40 l0 -344 q0 -27 21 -40 q19 -13 46 -13 q28 0 51 14 q21 12 21 39 l0 344 ZM612 723 l-208 0 q-1 4 -5 9 q-34 40 -65 65 q-22 16 -45 9 q-22 -7 -40 -29 q-18 -22 -21 -47 q-1 -3 -1 -7 l-151 0 q-27 0 -40 -20 q-12 -18 -12 -45 q0 -28 13 -49 q12 -21 39 -21 l29 0 q-10 -10 -15 -28 q-9 -25 -4 -50 q4 -24 30 -32 q49 -16 106 -43 q-28 -7 -63 -19 q-46 -12 -96 -27 q-27 -4 -35 -28 q-10 -24 -4 -52 q4 -27 20 -43 q16 -19 44 -14 q52 10 116 33 q60 19 108 46 q28 16 56 32 q82 -43 174 -99 q22 -15 44 -4 q21 9 36 32 q13 24 15 49 q1 24 -22 38 q-70 43 -136 79 q1 1 3 3 q24 27 52 68 q19 31 37 59 l41 0 q25 0 39 21 q12 18 12 45 q0 28 -13 49 q-12 19 -38 20 ZM416 588 q-4 -4 -6 -9 q-22 -30 -51 -58 q-78 40 -150 67 l207 0 ZM131 212 l0 -80 q0 -16 -2 -33 q-1 -19 -6 -38 q-1 -13 -9 -33 q-7 -19 -14 -33 q-7 -15 -16 -23 q-7 -10 -17 -20 q-7 -9 -14 -14 q-22 -15 -22 -40 q0 -22 15 -46 q16 -22 38 -32 q24 -12 46 3 q10 6 26 20 q15 12 32 32 q12 15 26 38 q10 19 22 46 q12 30 19 61 q7 30 10 50 q4 27 5 62 l0 80 q0 28 -22 41 q-19 13 -46 13 q-28 0 -51 -14 q-19 -12 -20 -40 ZM804 584 q0 27 -21 40 q-18 12 -45 12 q-28 0 -49 -13 q-19 -12 -20 -39 l0 -468 q0 -25 20 -39 q18 -12 45 -12 q28 0 49 13 q21 12 21 38 l0 468 ZM835 748 l0 -750 q0 -16 -12 -33 q-10 -9 -32 -12 q-21 3 -43 6 q-21 6 -39 10 q-27 4 -42 -15 q-16 -19 -20 -48 q-4 -28 6 -48 q10 -22 37 -26 q55 -13 91 -16 q37 -3 79 3 q40 4 68 30 q21 18 35 47 q10 31 11 54 l0 798 q0 28 -22 41 q-19 13 -46 13 q-28 0 -51 -14 q-19 -12 -20 -40 l0 0 Z" /><glyph glyph-name="uni524D" unicode="&#x524d;" d="M654 771 q-9 -28 -31 -72 l-201 0 q-22 52 -47 87 q-15 22 -40 22 q-22 0 -46 -16 q-24 -15 -35 -39 q-10 -22 5 -45 q1 -4 5 -9 l-184 0 q-27 0 -40 -20 q-12 -18 -12 -45 q0 -28 13 -49 q12 -21 39 -21 l860 0 q25 0 39 21 q12 18 12 45 q0 28 -13 49 q-12 19 -38 20 l-164 0 q6 16 11 29 q9 27 -8 46 q-13 16 -40 26 q-28 9 -53 2 q-24 -4 -32 -31 ZM101 469 l0 -597 q0 -25 20 -39 q18 -12 45 -12 q28 0 49 13 q21 12 21 38 l0 166 l173 0 l0 -41 q0 -34 -12 -34 q-10 -4 -25 -2 q-13 0 -25 -1 q-31 1 -46 -14 q-13 -21 -15 -49 q-1 -27 9 -47 q10 -22 37 -25 q40 -4 88 -5 q49 4 81 18 q43 21 43 96 l0 543 q-1 25 -17 42 q-19 19 -44 18 l-314 0 q-37 0 -53 -19 q-15 -21 -15 -49 ZM409 226 l0 -57 l-173 0 l0 57 l173 0 ZM376 406 q31 0 33 -32 l0 -17 l-173 0 l0 19 q-1 30 30 30 l110 0 ZM730 400 q0 25 -20 39 q-18 12 -44 12 q-27 0 -48 -13 q-19 -12 -19 -38 l0 -348 q0 -25 19 -38 q18 -12 44 -12 q27 0 48 13 q19 12 20 37 l0 348 ZM789 488 l0 -497 q0 -16 -12 -32 q-7 -7 -22 -9 q-13 1 -29 3 q-15 4 -27 7 q-25 3 -40 -16 q-16 -19 -19 -47 q-3 -27 7 -47 q10 -22 37 -25 q43 -9 74 -10 q30 -1 65 5 q33 4 56 26 q21 18 34 46 q10 30 11 52 l0 544 q0 27 -21 40 q-18 12 -45 12 q-28 0 -49 -13 q-19 -12 -20 -39 l0 0 Z" /><glyph glyph-name="uni5269" unicode="&#x5269;" d="M438 461 l1 -186 q-1 -40 14 -62 q16 -21 52 -21 l109 -1 q43 0 59 21 q13 19 14 60 l1 73 q0 16 -14 26 q-6 4 -13 6 q0 1 3 2 q19 9 21 27 q3 16 -6 36 q-9 19 -24 30 q-15 10 -34 2 q-28 -13 -68 -25 l0 15 q0 22 -18 33 q-16 9 -38 9 q-24 0 -42 -12 q-16 -10 -17 -33 ZM597 317 q1 -10 -29 -12 q-15 0 -15 8 l0 28 q22 7 44 12 q0 -3 0 -7 l0 -29 ZM266 236 l0 224 q0 22 -18 34 q-16 10 -39 10 q-22 0 -41 -11 q-15 -7 -17 -26 l-67 0 q-21 0 -30 -15 q-10 -13 -10 -35 q0 -21 10 -37 q9 -16 30 -16 l67 0 l0 -27 q-10 -3 -24 -8 q-40 -13 -75 -21 q-19 -4 -25 -21 q-7 -15 -2 -35 q4 -21 17 -34 q12 -13 31 -9 q46 12 78 20 q1 -16 17 -26 q16 -10 39 -10 q22 0 41 11 q18 10 18 32 ZM420 205 l0 311 l208 0 q24 0 36 20 q12 16 12 42 q0 25 -12 47 q-12 18 -36 18 l-208 0 l0 29 q90 6 147 18 q22 4 31 25 q7 18 2 41 q-4 24 -19 40 q-13 15 -37 11 q-64 -13 -192 -19 q-127 -6 -222 -4 q-24 1 -36 -17 q-10 -15 -12 -39 q-1 -25 10 -44 q10 -18 33 -19 q67 -1 160 0 l0 -22 l-205 0 q-25 0 -37 -19 q-12 -16 -12 -42 q0 -25 12 -47 q12 -19 37 -19 l205 0 l0 -311 q-52 -46 -107 -84 q-61 -36 -129 -65 q-25 -7 -30 -31 q-4 -25 4 -51 q9 -25 27 -39 q19 -15 44 -6 q58 30 132 78 q28 19 59 43 l0 -182 q0 -25 20 -39 q18 -12 45 -12 q28 0 49 13 q21 12 21 38 l0 185 q7 -3 14 -8 q72 -46 124 -89 q19 -16 42 -9 q19 7 36 27 q16 21 20 45 q3 22 -17 38 q-85 64 -136 99 q-37 24 -83 49 ZM824 636 q0 24 -19 35 q-16 10 -40 11 q-24 0 -43 -12 q-16 -10 -17 -34 l0 -532 q0 -22 18 -34 q16 -10 40 -11 q24 0 43 12 q18 10 18 33 l0 532 ZM845 752 l0 -761 q0 -16 -12 -32 q-10 -9 -29 -12 q-18 1 -38 5 q-19 4 -35 8 q-25 3 -40 -16 q-16 -19 -19 -47 q-3 -27 7 -47 q10 -22 37 -25 q49 -10 83 -12 q34 -1 73 4 q37 6 63 29 q21 18 34 46 q10 30 11 52 l0 808 q0 27 -21 40 q-18 12 -45 12 q-28 0 -49 -13 q-19 -12 -20 -39 l0 0 Z" /><glyph glyph-name="uni529B" unicode="&#x529b;" d="M934 108 q19 121 23 398 q0 58 -22 83 q-24 25 -77 26 l-318 0 l0 133 q0 27 -21 40 q-18 12 -45 12 q-28 0 -49 -13 q-19 -12 -20 -39 l0 -133 l-269 0 q-27 0 -39 -20 q-13 -21 -13 -49 q0 -27 12 -45 q13 -21 40 -21 l268 0 q-1 -31 -6 -62 q-7 -58 -25 -108 q-10 -42 -38 -96 q-31 -55 -62 -92 q-36 -43 -68 -68 q-34 -28 -73 -57 q-34 -22 -63 -38 q-25 -12 -27 -37 q-3 -22 9 -47 q12 -25 33 -37 q21 -16 46 -4 q28 13 76 44 q43 25 93 71 q37 31 78 83 q31 40 64 100 q36 66 57 133 q21 67 29 111 q7 46 11 104 l248 0 q15 0 20 -5 q6 -4 6 -21 q1 -115 -8 -249 q-18 -136 -35 -179 q-21 -43 -65 -56 q-34 -7 -87 3 q-46 9 -78 18 q-28 9 -47 -8 q-21 -18 -31 -46 q-9 -28 -3 -52 q7 -25 34 -35 q52 -19 136 -29 q84 -6 139 14 q82 28 112 82 q37 66 55 191 l0 0 Z" /><glyph glyph-name="uni529F" unicode="&#x529f;" d="M145 588 l0 -463 q-45 -15 -90 -26 q-25 -7 -32 -31 q-6 -25 2 -53 q7 -25 26 -41 q19 -16 45 -8 q94 22 183 59 q76 33 125 64 q22 15 23 40 q1 22 -13 46 q-15 24 -38 36 q-22 10 -45 -3 q-21 -13 -51 -28 l0 408 l84 0 q25 0 39 21 q12 18 12 45 q0 28 -13 49 q-12 19 -38 20 l-284 0 q-27 0 -40 -20 q-12 -18 -12 -45 q0 -28 13 -49 q12 -21 39 -21 l65 0 ZM969 106 q16 123 18 400 q0 55 -23 80 q-24 25 -78 25 l-162 0 l0 137 q0 27 -21 40 q-18 12 -45 12 q-28 0 -49 -13 q-19 -12 -20 -39 l0 -137 l-137 0 q-27 0 -39 -20 q-13 -21 -13 -49 q0 -27 12 -45 q13 -21 40 -21 l136 0 q-1 -30 -5 -60 q-7 -58 -24 -111 q-10 -43 -35 -98 q-28 -55 -57 -95 q-33 -43 -63 -69 q-31 -28 -67 -58 q-31 -24 -59 -39 q-24 -13 -25 -38 q-1 -22 11 -47 q13 -25 35 -36 q21 -15 46 -2 q25 13 70 45 q40 27 86 72 q34 33 72 84 q28 42 59 102 q34 67 53 135 q19 67 27 113 q7 46 10 102 l94 0 q16 0 23 -5 q6 -6 6 -25 q1 -115 -6 -248 q-13 -136 -26 -178 q-16 -43 -48 -55 q-28 -9 -74 1 q-42 9 -69 17 q-28 9 -47 -8 q-21 -18 -30 -47 q-9 -28 -2 -51 q6 -25 34 -35 q52 -19 130 -27 q79 -4 127 17 q66 28 91 83 q28 66 44 191 l0 0 Z" /><glyph glyph-name="uni52A0" unicode="&#x52a0;" d="M537 126 q10 127 13 413 q0 52 -24 76 q-25 24 -80 24 l-126 0 l0 109 q0 27 -21 40 q-18 12 -45 12 q-28 0 -49 -13 q-19 -12 -20 -39 l0 -109 l-113 0 q-27 0 -39 -20 q-13 -21 -13 -49 q0 -27 12 -45 q13 -21 40 -21 l112 0 q-1 -24 -2 -48 q-4 -66 -11 -123 q-4 -48 -18 -110 q-13 -63 -27 -106 q-16 -49 -30 -77 q-15 -31 -32 -65 q-15 -27 -28 -44 q-19 -19 -15 -43 q4 -22 23 -43 q19 -19 42 -25 q25 -9 45 10 q13 13 35 47 q19 28 43 77 q16 34 36 90 q13 43 29 108 q16 72 27 145 q9 72 13 120 q3 39 4 87 l62 0 q18 0 25 -6 q7 -7 7 -29 q1 -120 -3 -258 q-7 -141 -15 -184 q-10 -43 -30 -57 q-13 -7 -40 -2 q-22 4 -40 9 q-28 6 -46 -12 q-19 -19 -26 -49 q-7 -28 2 -52 q7 -25 37 -32 q42 -12 101 -12 q58 1 91 23 q46 30 63 85 q21 69 31 198 ZM585 595 l0 -654 q-1 -48 16 -69 q19 -22 63 -24 l224 0 q49 1 70 24 q22 24 22 69 l0 654 q-1 46 -26 64 q-25 16 -66 16 l-144 0 l-80 0 q-43 0 -61 -20 q-19 -21 -18 -60 ZM720 515 q-1 16 4 21 q4 4 20 4 l65 0 q22 0 29 -4 q7 -4 7 -21 l0 -496 q-1 -28 -4 -32 q-3 -4 -32 -4 l-65 0 q-13 0 -18 6 q-6 6 -6 30 l0 496 Z" /><glyph glyph-name="uni52A1" unicode="&#x52a1;" d="M862 247 l-322 0 l0 41 q0 25 -17 37 q1 1 5 2 q13 4 28 8 q7 -3 16 -7 q67 -31 170 -52 q112 -18 188 -25 q27 -1 41 18 q15 21 18 49 q1 28 -9 47 q-12 22 -39 25 q-79 6 -166 13 q-25 4 -46 8 q46 30 92 76 q54 52 79 114 q15 48 12 71 q-3 25 -19 46 q-18 19 -61 21 l-396 0 q0 9 -4 16 q-10 19 -33 33 q-24 13 -49 14 q-24 -1 -37 -24 q-25 -46 -48 -75 q-18 -25 -42 -49 q-24 -25 -46 -40 q-25 -18 -71 -47 q-22 -13 -24 -37 q0 -25 14 -49 q13 -22 33 -33 q21 -10 44 2 q34 19 74 49 q22 18 44 38 q43 -49 100 -96 q7 -6 14 -12 q-100 -13 -300 -15 q-27 1 -41 -18 q-15 -21 -18 -49 q-1 -28 9 -47 q12 -22 39 -25 q139 1 254 18 q30 4 58 7 q-1 -4 -1 -12 l0 -41 l-269 0 q-27 0 -39 -20 q-13 -21 -13 -49 q0 -27 12 -45 q13 -21 40 -21 l230 0 q-10 -13 -28 -30 q-28 -25 -58 -41 q-34 -19 -64 -30 q-33 -12 -69 -25 q-31 -10 -60 -16 q-27 -4 -37 -26 q-10 -19 -7 -48 q3 -28 19 -46 q15 -22 42 -19 q30 7 80 25 q48 15 99 40 q40 18 83 47 q34 22 68 56 q39 37 62 75 q12 21 20 38 l266 0 q7 0 11 0 q1 -1 3 -4 q1 -34 -4 -73 q-10 -40 -22 -53 q-13 -13 -40 -18 q-28 -3 -66 7 q-36 9 -58 17 q-27 12 -48 -3 q-22 -16 -35 -43 q-12 -27 -8 -51 q4 -25 30 -38 q39 -18 102 -32 q64 -12 111 -4 q82 13 113 37 q36 31 55 88 q19 55 23 182 q0 64 -20 94 q-21 28 -67 29 ZM457 550 q-25 22 -52 54 l342 0 q12 0 15 -2 q3 -1 2 -6 q-3 -9 -48 -47 q-49 -40 -117 -69 q-16 -4 -30 -11 q-13 7 -26 16 q-46 30 -86 65 l0 0 Z" /><glyph glyph-name="uni52A8" unicode="&#x52a8;" d="M124 743 q-27 0 -40 -20 q-12 -18 -12 -45 q0 -28 13 -49 q12 -21 39 -21 l304 0 q25 0 39 21 q12 18 12 45 q0 28 -13 49 q-12 19 -38 20 l-304 0 ZM468 519 l-400 0 q-27 0 -40 -20 q-12 -18 -12 -45 q0 -28 13 -49 q12 -21 39 -21 l109 0 q-37 -144 -138 -321 q-10 -16 -9 -40 q1 -22 18 -44 q16 -22 44 -26 q22 -3 47 6 l290 73 q1 -4 4 -9 q9 -24 32 -29 q4 -1 9 -1 q-6 -7 -11 -14 q-18 -22 -33 -35 q-22 -16 -20 -41 q1 -22 18 -45 q16 -22 39 -30 q24 -10 46 5 q16 10 43 39 q25 24 52 64 q21 28 44 74 q18 36 36 89 q21 60 32 120 q12 60 16 99 q6 52 8 122 l0 72 l75 0 q18 0 25 -6 q7 -6 7 -28 q1 -123 -4 -264 q-10 -145 -19 -189 q-10 -45 -35 -58 q-16 -7 -46 -2 q-27 6 -45 11 q-28 7 -46 -11 q-19 -19 -28 -48 q-7 -28 1 -51 q7 -25 36 -33 q43 -13 107 -16 q61 0 98 21 q51 30 71 87 q22 70 34 201 q13 129 14 420 q0 52 -23 77 q-25 24 -80 24 l-142 0 l0 105 q0 27 -21 40 q-18 12 -45 12 q-28 0 -49 -13 q-19 -12 -20 -39 l0 -105 l-77 0 q-27 0 -39 -20 q-13 -21 -13 -49 q0 -27 12 -45 q13 -21 40 -21 l77 0 l0 -72 q0 -43 -4 -84 q-4 -52 -13 -97 q-6 -37 -21 -86 q-13 -40 -28 -71 q-43 106 -91 178 q-13 21 -38 20 q-22 0 -43 -14 q-22 -15 -33 -37 q-10 -21 4 -42 q16 -24 33 -57 l-159 -37 q69 154 96 271 l156 0 q25 0 39 21 q12 18 12 45 q0 28 -13 49 q-12 19 -38 20 l0 0 Z" /><glyph glyph-name="uni52A9" unicode="&#x52a9;" d="M972 121 q13 129 17 419 q-1 54 -24 79 q-25 24 -79 24 l-134 0 l0 109 q0 27 -21 40 q-18 12 -45 12 q-28 0 -49 -13 q-19 -12 -20 -39 l0 -109 l-89 0 q-27 0 -39 -20 q-13 -21 -13 -49 q0 -27 12 -45 q13 -21 40 -21 l89 0 l0 -36 q0 -46 -5 -90 q-4 -55 -16 -104 q-7 -40 -25 -91 q-19 -52 -41 -89 q-10 -19 -22 -35 q-7 19 -18 34 q-13 16 -36 14 l0 552 q-1 43 -23 69 q-22 22 -69 23 l-117 0 l-67 0 q-42 1 -69 -22 q-22 -22 -22 -69 l0 -609 l-14 -2 q-27 -4 -37 -27 q-10 -21 -5 -48 q4 -28 21 -48 q16 -18 42 -14 l335 55 q-18 -16 -33 -29 q-22 -15 -21 -40 q0 -22 16 -46 q16 -22 38 -32 q22 -12 46 3 q19 12 51 42 q30 25 63 67 q25 31 52 79 q22 39 44 95 q24 64 39 127 q13 64 19 106 q7 55 9 129 l0 36 l66 0 q16 0 24 -6 q6 -6 6 -27 q1 -121 -5 -264 q-10 -145 -22 -189 q-13 -45 -43 -58 q-16 -6 -45 0 q-27 6 -45 12 q-28 7 -47 -10 q-19 -18 -28 -47 q-9 -28 -1 -52 q7 -25 35 -34 q42 -13 105 -18 q63 -1 100 18 q58 31 81 87 q25 70 39 201 ZM323 172 l0 -81 l-105 -16 l0 97 l105 0 ZM323 396 l0 -89 l-105 0 l0 89 l105 0 ZM218 592 q-1 18 6 24 q4 4 21 4 l48 0 q21 1 26 -4 q3 -4 4 -25 l0 -60 l-105 0 l0 61 Z" /><glyph glyph-name="uni52AA" unicode="&#x52aa;" d="M858 247 l-290 0 l0 13 q0 4 -1 6 q7 -1 19 2 q46 15 130 61 q6 4 14 8 q37 -22 93 -45 q64 -22 109 -33 q25 -6 42 10 q18 18 24 45 q6 25 -1 47 q-7 22 -34 29 q-40 9 -85 19 q-22 7 -38 12 q45 43 81 98 q34 52 59 129 q10 43 -10 79 q-18 30 -68 30 l-318 0 q-25 0 -38 -19 q-13 -21 -13 -48 q0 -25 12 -44 q13 -19 39 -20 l228 0 q13 0 19 -6 q4 -6 0 -17 q-10 -25 -33 -54 q-24 -31 -56 -59 q-1 0 -1 -1 q-9 10 -17 20 q-19 22 -39 63 q-10 24 -33 29 q-21 4 -45 -5 q-25 -10 -40 -29 q-13 -18 -5 -42 q27 -54 68 -100 q-36 -13 -81 -28 q-25 -7 -32 -30 q-6 -24 1 -50 q1 -3 2 -7 q-7 1 -18 2 q-28 0 -49 -13 q-19 -12 -20 -39 l0 -13 l-266 0 q24 13 55 28 q30 16 58 36 l95 -35 q24 -10 43 4 q16 12 27 36 q10 25 6 49 q-3 22 -27 32 l-33 9 q22 25 43 55 q34 51 61 126 q10 43 -10 79 q-16 31 -67 31 l-103 0 q7 19 15 35 q7 24 -7 42 q-13 16 -38 25 q-25 9 -49 4 q-22 -4 -31 -30 q-15 -39 -34 -76 l-103 0 q-25 0 -38 -19 q-13 -21 -13 -48 q0 -25 12 -44 q13 -19 39 -20 l11 0 q-64 -76 -62 -117 q1 -49 50 -60 l56 -21 q-31 -10 -69 -22 q-25 -7 -32 -29 q-7 -24 0 -51 q7 -25 23 -41 q18 -16 44 -10 q10 4 26 9 q-10 -19 -11 -46 q0 -27 12 -45 q13 -21 40 -21 l269 0 q-4 -16 -14 -31 q-19 -25 -51 -47 q-34 -21 -92 -38 q-63 -18 -160 -34 q-28 1 -43 -22 q-13 -19 -14 -49 q0 -31 14 -54 q13 -22 42 -22 q121 16 214 41 q88 24 152 68 q54 43 74 93 q13 37 18 95 l217 0 q12 0 16 -3 q4 -3 5 -15 q1 -31 -2 -66 q-6 -37 -12 -48 q-7 -10 -22 -15 q-28 -4 -69 0 q-37 4 -61 10 q-28 9 -47 -8 q-19 -19 -29 -48 q-9 -28 -2 -51 q7 -25 35 -34 q40 -12 107 -17 q67 -4 115 7 q58 13 81 37 q25 31 39 88 q15 57 17 183 q0 61 -22 88 q-22 27 -73 27 ZM204 460 q-42 12 -43 17 q1 7 27 37 q21 25 42 52 l96 0 q13 0 19 -5 q4 -4 -1 -15 q-10 -25 -33 -53 q-22 -25 -50 -50 l-57 17 Z" /><glyph glyph-name="uni52B1" unicode="&#x52b1;" d="M985 131 q9 124 10 406 q0 52 -24 75 q-25 22 -81 23 l-74 0 l0 113 q0 27 -21 40 q-18 12 -45 12 q-28 0 -49 -13 q-19 -12 -20 -39 l0 -113 l-49 0 q-27 0 -39 -20 q-13 -21 -13 -49 q0 -27 12 -45 q13 -21 40 -21 l49 0 l0 -28 q0 -46 -3 -90 q-4 -55 -12 -104 q-4 -40 -17 -92 q-13 -52 -27 -89 q-16 -40 -31 -64 q-15 -28 -33 -55 q-3 -3 -5 -7 q3 25 6 57 q7 82 8 269 q0 52 -24 75 q-25 22 -81 23 l-88 0 l0 61 l134 0 q25 0 39 21 q12 18 12 45 q0 28 -13 49 q-12 19 -38 20 l-312 0 l0 19 q-1 30 29 30 l323 0 q25 0 39 21 q12 18 12 45 q0 28 -13 49 q-12 19 -38 20 l-389 0 q-52 0 -74 -22 q-25 -28 -24 -77 l0 -392 q0 -111 -10 -213 q-10 -85 -28 -159 q-13 -21 -3 -44 q10 -22 45 -41 q37 -18 57 -6 q13 10 27 32 q1 -1 5 -5 q18 -19 40 -25 q22 -7 42 9 q9 10 26 33 q13 19 31 53 q12 24 26 62 q10 30 21 74 q13 49 20 99 q7 49 9 82 q1 12 1 25 l28 0 q19 0 26 -7 q7 -6 7 -30 q1 -61 0 -131 q-1 -72 -4 -94 q-3 -22 -9 -29 q-7 -6 -25 -5 q-16 1 -29 2 q-28 3 -45 -17 q-16 -22 -20 -52 q-3 -28 8 -51 q10 -24 40 -27 q33 -4 80 0 q46 7 74 25 q13 10 24 24 q3 -6 9 -13 q19 -21 42 -27 q24 -10 45 8 q13 12 36 41 q21 25 44 66 q18 31 37 79 q15 37 30 93 q18 63 28 125 q10 63 13 104 q6 55 7 128 l0 28 l10 0 q19 0 26 -7 q7 -6 7 -30 q1 -117 -1 -251 q-6 -138 -11 -180 q-7 -43 -21 -55 q-9 -6 -28 -5 q-18 0 -30 2 q-28 3 -44 -17 q-16 -22 -21 -52 q-3 -28 8 -51 q10 -24 40 -27 q34 -7 84 -2 q48 7 74 27 q37 28 51 84 q16 67 25 195 ZM196 456 l47 0 l0 -120 q0 -36 -2 -69 q-1 -43 -7 -80 q-4 -30 -11 -70 q-9 -40 -18 -68 q-10 -31 -19 -50 q-4 -7 -8 -15 q7 51 12 107 q6 81 6 152 l0 213 Z" /><glyph glyph-name="uni5305" unicode="&#x5305;" d="M791 701 l-466 0 q6 18 12 35 q6 25 -10 43 q-15 16 -41 23 q-27 7 -51 -1 q-22 -6 -29 -32 q-21 -81 -59 -149 q-39 -70 -101 -128 q-22 -15 -21 -39 q0 -22 15 -44 q15 -22 38 -33 q21 -10 43 5 q16 16 36 33 l0 -412 q0 -81 20 -108 q21 -28 54 -41 q76 -28 322 -22 q312 -1 382 21 q27 10 44 37 q13 22 19 51 q6 25 5 121 q0 27 -20 39 q-19 13 -46 12 q-28 0 -49 -12 q-21 -10 -20 -40 q-1 -22 -4 -49 q-4 -27 -31 -27 q-301 -4 -367 -3 q-70 1 -137 1 q-25 1 -32 14 q-4 13 -5 55 l0 103 l273 0 q6 0 12 0 q-18 -18 -25 -45 q-7 -28 1 -51 q7 -25 36 -33 q43 -13 106 -16 q63 0 99 21 q43 25 59 70 q19 57 29 163 q10 103 12 339 q-1 52 -24 75 q-25 24 -79 24 ZM292 285 l0 73 q-1 18 4 23 q6 4 24 5 l194 0 q21 0 25 -5 q4 -7 6 -25 l0 -39 q-1 -18 -5 -25 q-7 -7 -27 -7 l-221 0 ZM723 570 q18 0 25 -6 q7 -7 7 -30 q1 -90 -2 -194 q-7 -106 -13 -139 q-7 -33 -23 -42 q-16 -7 -45 -2 q-19 4 -36 8 q12 6 23 15 q21 19 21 89 l0 152 q-1 51 -24 73 q-22 22 -72 23 l-332 0 q-4 1 -12 0 q7 13 16 26 q7 13 14 27 l453 0 Z" /><glyph glyph-name="uni5316" unicode="&#x5316;" d="M281 767 q-42 -109 -107 -223 q-73 -109 -137 -195 q-19 -19 -20 -40 q1 -28 20 -48 q22 -19 43 -27 q25 -4 47 17 q24 25 50 58 l0 -441 q0 -25 20 -39 q18 -12 45 -12 q28 0 49 13 q21 12 21 38 l0 648 q0 3 -1 6 q9 16 18 33 q48 99 73 174 q7 24 -7 42 q-13 16 -38 23 q-25 7 -48 2 q-21 -4 -28 -29 ZM471 744 l0 -444 q-54 -34 -109 -69 q-25 -10 -27 -35 q-3 -25 9 -52 q12 -25 32 -37 q19 -13 45 -1 q24 15 50 31 l0 -185 q0 -49 33 -81 q28 -27 75 -27 q144 1 287 0 q22 0 39 3 q13 1 27 10 q13 10 21 21 q18 30 20 63 q4 28 2 139 q-1 34 -15 50 q-15 16 -47 20 q-34 0 -53 -15 q-19 -19 -20 -46 q0 -31 0 -55 q0 -16 -2 -33 q-1 -13 -8 -18 q-7 -4 -52 -4 q-61 0 -131 0 q-22 1 -30 8 q-7 9 -7 29 l0 221 q9 9 21 17 q114 91 255 244 q19 21 10 45 q-9 21 -30 38 q-22 18 -48 21 q-24 3 -41 -19 q-82 -94 -167 -175 l0 336 q0 28 -22 41 q-19 13 -46 13 q-28 0 -51 -14 q-19 -12 -20 -40 l0 0 Z" /><glyph glyph-name="uni5317" unicode="&#x5317;" d="M442 -132 l0 884 q0 28 -22 41 q-19 13 -46 13 q-28 0 -51 -14 q-19 -12 -20 -40 l0 -179 l-199 0 q-28 0 -41 -21 q-13 -19 -13 -46 q0 -28 14 -51 q12 -21 40 -21 l199 0 l0 -336 q-37 -13 -95 -28 q-84 -21 -148 -33 q-27 -4 -36 -27 q-10 -21 -5 -48 q4 -28 21 -48 q16 -18 43 -14 q72 13 185 43 q18 4 35 9 l0 -84 q0 -27 21 -40 q19 -13 46 -13 q28 0 51 14 q21 12 21 39 ZM682 374 q168 58 280 125 q24 13 24 39 q1 22 -13 47 q-15 25 -38 37 q-21 10 -45 -3 q-79 -46 -208 -96 l0 225 q0 28 -22 41 q-19 13 -46 13 q-28 0 -51 -14 q-19 -12 -20 -40 l0 -804 q0 -51 33 -82 q30 -28 77 -28 q112 1 223 0 q24 0 41 3 q13 3 28 11 q13 10 22 21 q18 30 21 64 q4 28 5 141 q0 36 -14 52 q-15 16 -48 22 q-36 1 -55 -14 q-21 -19 -22 -47 q-1 -34 -3 -57 q-1 -18 -4 -34 q0 -13 -8 -19 q-7 -4 -53 -4 q-31 0 -67 0 q-22 1 -30 8 q-7 9 -7 30 l0 363 Z" /><glyph glyph-name="uni5373" unicode="&#x5373;" d="M85 699 l0 -572 l0 -11 l-1 -210 q-1 -33 23 -60 q27 -25 58 -21 q28 6 94 25 q85 31 151 60 q3 -9 7 -19 q7 -25 32 -30 q21 -6 46 3 q25 7 42 27 q15 18 7 43 q-31 87 -53 134 q-19 43 -49 95 q-13 22 -36 24 q-22 1 -45 -12 q-24 -13 -36 -35 q-10 -19 2 -43 q7 -15 30 -62 q-45 -16 -90 -35 q-28 -9 -38 -4 q-7 7 -9 20 q0 4 0 7 l0 93 q0 1 0 1 l0 125 l234 0 q70 0 70 70 l0 387 q0 70 -70 70 l-299 0 q-70 0 -70 -70 ZM389 442 l0 -46 q0 -22 -23 -23 l-146 0 l0 69 l169 0 ZM220 573 l0 43 q0 22 22 22 l124 0 q22 0 23 -22 l0 -43 l-169 0 ZM692 -132 l0 742 q0 31 31 30 l76 0 q33 0 34 -33 l0 -490 q0 -31 -12 -30 q-10 -3 -26 -1 q-15 0 -25 0 q-34 1 -49 -13 q-13 -22 -17 -50 q-1 -28 8 -49 q10 -22 37 -27 q42 -7 92 -8 q51 1 83 16 q43 21 44 99 l0 660 q-1 25 -17 43 q-19 19 -45 18 l-280 0 q-37 0 -53 -19 q-16 -22 -16 -50 l0 -838 q0 -25 20 -39 q18 -12 45 -12 q28 0 49 13 q21 12 21 38 l0 0 Z" /><glyph glyph-name="uni53BB" unicode="&#x53bb;" d="M545 256 l387 0 q25 0 39 21 q12 18 12 45 q0 28 -13 49 q-12 19 -38 20 l-354 0 l0 129 l270 0 q25 0 39 21 q12 18 12 45 q0 28 -13 49 q-12 19 -38 20 l-270 0 l0 97 q0 28 -22 41 q-19 13 -46 13 q-28 0 -51 -14 q-19 -12 -20 -40 l0 -97 l-255 0 q-27 0 -40 -20 q-12 -18 -12 -45 q0 -28 13 -49 q12 -21 39 -21 l255 0 l0 -129 l-351 0 q-27 0 -40 -20 q-12 -18 -12 -45 q0 -28 13 -49 q12 -21 39 -21 l296 0 q-97 -141 -257 -294 q-16 -13 -20 -38 q-4 -24 7 -50 q10 -27 38 -38 q22 -9 49 -6 l632 59 q3 1 7 0 q13 -22 25 -44 q12 -22 36 -25 q21 -1 45 10 q24 13 37 34 q12 19 0 43 q-58 103 -94 160 q-34 52 -81 112 q-16 19 -40 17 q-22 -1 -42 -18 q-21 -16 -30 -41 q-7 -21 9 -42 q15 -19 57 -82 l-427 -36 q132 153 210 279 l0 0 Z" /><glyph glyph-name="uni53C2" unicode="&#x53c2;" d="M806 85 q-102 -51 -172 -76 q-61 -21 -133 -35 q-70 -16 -125 -16 q-66 -1 -180 2 q-25 1 -40 -18 q-13 -19 -16 -48 q-1 -25 9 -46 q10 -21 38 -23 q75 -7 168 0 q85 4 172 22 q81 15 176 50 q91 28 162 67 q24 12 26 36 q3 22 -8 46 q-13 25 -34 38 q-19 13 -43 1 ZM692 206 q-114 -46 -222 -74 q-102 -18 -208 -24 q-25 1 -39 -19 q-13 -21 -15 -48 q-1 -27 10 -46 q12 -21 39 -22 q91 6 210 29 q118 22 280 81 q25 10 29 34 q1 22 -9 47 q-10 25 -32 40 q-19 13 -43 2 ZM952 467 l-412 0 q13 28 26 58 q0 4 1 6 l223 18 q16 -21 31 -40 q16 -21 41 -19 q22 1 44 19 q22 16 31 41 q9 22 -8 44 q-58 69 -93 106 q-31 33 -75 72 q-21 16 -44 10 q-22 -6 -39 -27 q-18 -21 -23 -46 q-4 -24 17 -41 q1 -1 4 -4 l-289 -20 q28 22 53 45 q22 24 24 47 q1 21 -28 46 q-27 22 -46 21 q-19 -1 -37 -20 q-81 -76 -223 -144 q-16 -10 -25 -33 q-7 -22 -2 -49 q7 -27 30 -42 q21 -12 47 -13 l232 17 q-15 -27 -30 -48 q-1 -1 -4 -4 l-306 0 q-27 0 -40 -20 q-12 -18 -12 -45 q0 -28 13 -49 q12 -21 39 -21 l152 0 q-10 -4 -19 -11 q-61 -33 -147 -65 q-27 -7 -34 -31 q-7 -22 0 -48 q7 -28 26 -46 q16 -16 43 -10 q57 18 152 67 q21 13 42 24 q0 0 0 -2 q-1 -25 9 -44 q10 -19 36 -21 q52 3 119 14 q66 12 158 43 q24 10 27 32 q3 21 -7 44 q-10 24 -30 38 q-18 13 -41 3 q-58 -22 -113 -36 q-34 -4 -68 -10 q16 15 34 28 q18 16 34 31 l177 0 q1 -1 2 -2 q64 -70 143 -127 q72 -51 152 -86 q24 -10 44 3 q22 13 33 40 q12 25 8 48 q-3 24 -28 36 q-93 40 -148 82 q-4 3 -8 6 l132 0 q25 0 39 21 q12 18 12 45 q0 28 -13 49 q-12 19 -38 20 l0 0 Z" /><glyph glyph-name="uni53CB" unicode="&#x53cb;" d="M451 544 l485 0 q25 0 39 21 q12 18 12 45 q0 28 -13 49 q-12 19 -38 20 l-454 0 q6 33 10 63 q4 27 -15 43 q-16 16 -44 20 q-28 4 -52 -6 q-22 -9 -26 -36 q-7 -43 -13 -84 l-258 0 q-27 0 -40 -20 q-12 -18 -12 -45 q0 -28 13 -49 q12 -21 39 -21 l230 0 q-3 -13 -6 -27 q-22 -82 -62 -172 q-37 -88 -78 -150 q-49 -72 -139 -195 q-16 -21 -8 -44 q7 -24 31 -42 q21 -16 44 -19 q25 -3 42 18 q63 75 125 180 q40 67 76 140 q19 -39 46 -80 q46 -78 102 -129 q-9 -4 -18 -8 q-87 -37 -225 -68 q-25 -6 -34 -29 q-7 -24 -2 -52 q6 -27 23 -43 q16 -16 44 -11 q121 28 254 92 q34 16 66 35 q31 -19 69 -38 q112 -58 246 -86 q25 -4 43 13 q16 19 23 47 q4 27 -3 48 q-9 22 -36 29 q-108 22 -172 49 q-25 10 -48 21 q9 7 18 15 q67 60 111 126 q60 91 80 175 q15 61 -5 97 q-21 33 -73 35 l-418 0 q7 24 14 48 q3 13 7 25 ZM760 336 q13 0 21 -7 q6 -7 1 -26 q-9 -40 -59 -106 q-31 -43 -79 -80 q-18 -13 -37 -27 q-55 43 -107 118 q-34 46 -64 128 l324 0 Z" /><glyph glyph-name="uni53D1" unicode="&#x53d1;" d="M671 660 q46 -19 114 -69 q21 -16 44 -7 q21 7 38 28 q16 22 19 48 q3 22 -18 40 q-79 57 -142 84 q-25 10 -45 -3 q-18 -12 -29 -36 q-12 -25 -9 -51 q3 -22 28 -34 ZM461 438 l465 0 q25 -4 47 5 q21 9 27 53 q4 36 -12 51 q-16 15 -44 19 l-428 0 q34 88 56 168 q7 25 -9 44 q-13 16 -40 24 q-25 7 -51 0 q-22 -6 -29 -31 q-34 -121 -66 -205 l-128 0 q-19 -4 -12 15 l101 115 q16 21 13 43 q-3 24 -28 43 q-25 19 -48 18 q-22 -1 -40 -23 l-157 -192 q-37 -54 -14 -95 q25 -43 103 -52 l151 0 q-15 -28 -33 -60 q-46 -82 -95 -135 q-57 -64 -159 -173 q-19 -18 -14 -42 q6 -25 26 -46 q19 -19 41 -24 q24 -6 44 13 q70 64 143 159 q24 31 48 65 q30 -55 73 -109 q28 -37 59 -68 q-79 -31 -226 -65 q-27 -4 -36 -27 q-10 -22 -6 -51 q4 -28 20 -45 q16 -18 43 -14 q156 37 269 87 q25 13 52 26 q52 -30 118 -55 q114 -45 244 -59 q27 -1 41 17 q16 21 18 49 q3 28 -7 48 q-10 22 -39 25 q-103 10 -168 31 q-43 13 -77 26 q13 10 28 22 q70 58 120 122 q49 61 73 118 q12 28 11 51 q0 22 -13 44 q-13 25 -51 25 l-426 0 q10 22 22 45 ZM720 262 q7 0 16 -6 q7 -7 3 -15 q-7 -12 -44 -55 q-42 -49 -103 -90 q-9 -6 -18 -13 q-34 30 -71 71 q-34 40 -69 108 l286 0 Z" /><glyph glyph-name="uni53D6" unicode="&#x53d6;" d="M109 632 l0 -564 q-19 0 -37 -2 q-28 -1 -40 -23 q-10 -19 -10 -48 q1 -28 17 -49 q13 -19 40 -19 q109 7 282 33 l0 -96 q0 -25 20 -39 q18 -12 45 -12 q28 0 49 13 q21 12 21 38 l0 119 q40 9 72 19 q25 7 32 32 q7 22 -1 48 q-7 27 -28 45 q-16 16 -44 8 q-15 -4 -31 -9 l0 506 l24 0 q25 0 39 21 q12 18 12 45 q0 28 -13 49 q-12 19 -38 20 l-444 0 q-27 0 -40 -20 q-12 -18 -12 -45 q0 -28 13 -49 q12 -21 39 -21 l33 0 ZM361 186 l0 -86 q-22 -1 -44 -6 q-37 -4 -73 -11 l0 103 l117 0 ZM361 406 l0 -89 l-117 0 l0 89 l117 0 ZM361 632 l0 -95 l-117 0 l0 95 l117 0 ZM925 747 l-293 0 q-27 0 -39 -20 q-13 -21 -13 -49 q0 -27 12 -45 q13 -21 40 -21 l216 0 q12 0 20 -8 q4 -10 5 -27 q0 -30 -8 -100 q-6 -61 -18 -122 q-13 -55 -33 -115 q-7 -16 -16 -35 q-4 6 -5 10 q-61 127 -85 321 q-4 25 -26 34 q-19 9 -46 4 q-25 -4 -44 -21 q-16 -13 -13 -40 q40 -211 108 -356 q19 -40 38 -80 q-19 -25 -40 -50 q-49 -52 -111 -88 q-22 -15 -22 -39 q0 -25 16 -50 q15 -22 36 -32 q22 -10 45 4 q66 46 112 102 q13 19 28 39 q48 -76 99 -133 q18 -19 42 -16 q25 4 46 24 q21 19 27 41 q6 24 -12 44 q-70 85 -125 169 q22 46 44 101 q34 96 50 172 q16 85 25 179 q9 93 9 132 q-3 19 -12 37 q-9 16 -26 26 q-19 7 -31 8 l0 0 Z" /><glyph glyph-name="uni53E6" unicode="&#x53e6;" d="M793 775 l-490 0 l-83 0 q-43 1 -62 -20 q-19 -21 -19 -61 l0 -244 q-1 -49 16 -70 q21 -22 65 -24 l209 0 q-7 -10 -8 -28 l0 -29 l-273 0 q-27 0 -39 -20 q-13 -21 -13 -49 q0 -27 12 -45 q13 -21 40 -21 l263 0 q-7 -22 -21 -42 q-12 -19 -38 -45 q-30 -25 -61 -43 q-34 -21 -67 -32 q-34 -13 -71 -27 q-34 -10 -62 -18 q-27 -3 -38 -26 q-10 -19 -6 -48 q3 -28 19 -45 q15 -22 42 -18 q31 7 83 25 q49 16 102 42 q40 19 85 48 q34 24 69 59 q40 39 64 78 q22 39 31 65 q4 13 7 27 l229 0 q12 0 16 -3 q4 -3 5 -15 q1 -40 -4 -89 q-7 -49 -17 -64 q-10 -15 -31 -20 q-31 -6 -77 1 q-40 7 -68 13 q-27 9 -47 -8 q-21 -18 -30 -47 q-9 -28 -2 -51 q6 -25 34 -35 q43 -13 115 -21 q73 -4 124 7 q66 15 90 43 q28 34 44 100 q16 64 19 209 q0 61 -22 88 q-22 27 -73 27 l-298 0 l0 29 q0 16 -8 28 l245 0 q49 1 71 25 q22 22 22 69 l0 244 q-1 46 -26 65 q-25 16 -67 16 ZM303 491 q-13 0 -19 7 q-6 4 -6 30 l0 87 q0 16 4 21 q4 4 21 4 l408 0 q22 0 29 -4 q7 -4 7 -21 l0 -87 q0 -28 -3 -33 q-4 -3 -33 -4 l-408 0 Z" /><glyph glyph-name="uni53EA" unicode="&#x53ea;" d="M220 212 l584 0 q49 1 70 24 q22 24 22 69 l0 386 q-1 46 -26 64 q-25 16 -66 16 l-504 0 l-80 0 q-43 0 -61 -20 q-19 -21 -18 -60 l0 -386 q-1 -48 16 -69 q19 -22 63 -24 ZM300 347 q-13 0 -18 6 q-6 6 -6 30 l0 228 q-1 16 4 21 q4 4 20 4 l425 0 q22 0 29 -4 q7 -4 7 -21 l0 -228 q-1 -28 -4 -32 q-3 -4 -32 -4 l-425 0 ZM306 157 q-55 -66 -113 -119 q-57 -43 -120 -83 q-25 -12 -27 -36 q-1 -25 11 -51 q12 -25 32 -37 q21 -13 45 -1 q57 37 127 93 q67 57 152 153 q18 21 9 44 q-9 19 -30 37 q-22 16 -47 19 q-22 1 -39 -19 ZM645 60 q97 -73 230 -222 q16 -21 41 -17 q22 1 43 20 q21 18 29 42 q7 22 -9 43 q-135 154 -253 243 q-21 16 -44 7 q-21 -7 -37 -29 q-16 -22 -19 -48 q-1 -22 19 -39 l0 0 Z" /><glyph glyph-name="uni53EB" unicode="&#x53eb;" d="M430 -15 l0 665 q0 49 -49 49 l-281 0 q-49 0 -49 -49 l0 -665 q0 -49 49 -49 l281 0 q49 0 49 49 ZM190 553 q0 10 11 11 l79 0 q10 0 11 -11 l0 -471 q0 -10 -11 -11 l-79 0 q-10 0 -11 11 l0 471 ZM934 -136 l0 880 q0 28 -22 41 q-19 13 -46 13 q-28 0 -51 -14 q-19 -12 -20 -40 l0 -512 l-155 -35 q-28 -10 -32 32 l0 414 q-1 22 -17 39 q-13 13 -55 14 q-33 0 -47 -14 q-13 -13 -14 -40 l0 -510 q0 -46 24 -69 q27 -25 73 -15 l223 45 l0 -229 q0 -27 21 -40 q19 -13 46 -13 q28 0 51 14 q21 12 21 39 l0 0 Z" /><glyph glyph-name="uni53EF" unicode="&#x53ef;" d="M597 551 l-393 0 q-49 0 -49 -49 l0 -353 q0 -49 49 -49 l393 0 q49 0 49 49 l0 353 q0 49 -49 49 ZM496 416 q10 0 11 -11 l0 -159 q0 -10 -11 -11 l-191 0 q-10 0 -11 11 l0 159 q0 10 11 11 l191 0 ZM940 763 l-844 0 q-27 0 -40 -20 q-12 -18 -12 -45 q0 -28 13 -49 q12 -21 39 -21 l635 0 l0 -610 q0 -16 -12 -33 q-22 -19 -66 -26 q-40 4 -86 11 q-43 10 -79 19 q-27 4 -42 -15 q-16 -19 -19 -48 q-4 -28 6 -48 q10 -22 38 -26 q81 -22 135 -27 q55 -6 118 1 q61 6 100 43 q21 18 35 47 q10 31 11 54 l0 658 l70 0 q25 0 39 21 q12 18 12 45 q0 28 -13 49 q-12 19 -38 20 l0 0 Z" /><glyph glyph-name="uni53F7" unicode="&#x53f7;" d="M837 773 l-633 0 q-49 0 -49 -49 l0 -249 q0 -49 49 -49 l633 0 q49 0 49 49 l0 249 q0 49 -49 49 ZM736 642 q10 0 11 -11 l0 -63 q0 -10 -11 -11 l-431 0 q-10 0 -11 11 l0 63 q0 10 11 11 l431 0 ZM944 391 l-844 0 q-27 0 -40 -20 q-12 -18 -12 -45 q0 -28 13 -49 q12 -21 39 -21 l128 0 l-35 -89 q-15 -37 7 -65 q19 -24 53 -23 l480 0 q15 0 19 -3 q4 -4 2 -14 q-13 -46 -25 -63 q-13 -15 -24 -19 q-24 -10 -87 -15 q-61 -4 -174 8 q-117 12 -206 33 q-28 7 -46 -10 q-19 -19 -26 -47 q-7 -28 0 -50 q7 -25 35 -32 q96 -24 279 -38 q157 -12 216 0 q58 10 94 31 q37 22 66 72 q24 52 44 165 q9 67 -12 94 q-21 25 -62 28 l-462 0 q3 7 11 26 l3 11 l566 0 q25 0 39 21 q12 18 12 45 q0 28 -13 49 q-12 19 -38 20 l0 0 Z" /><glyph glyph-name="uni5408" unicode="&#x5408;" d="M290 626 q-82 -58 -231 -120 q-25 -10 -29 -36 q-4 -25 8 -53 q10 -25 31 -39 q21 -13 47 -3 q91 39 198 114 q79 61 125 111 q43 52 77 52 q34 0 79 -50 q37 -46 151 -130 q94 -67 168 -101 q25 -10 46 3 q22 15 34 41 q12 25 8 49 q-3 25 -29 37 q-145 61 -226 122 q-84 64 -126 115 q-49 57 -105 57 q-55 1 -97 -52 q-43 -52 -129 -117 ZM312 463 q-27 0 -40 -20 q-12 -18 -12 -45 q0 -28 13 -49 q12 -21 39 -21 l408 0 q25 0 39 21 q12 18 12 45 q0 28 -13 49 q-12 19 -38 20 l-408 0 ZM223 -162 l570 0 q49 0 69 24 q21 22 22 67 l0 261 q-1 46 -25 63 q-25 16 -66 16 l-489 0 l-81 0 q-42 0 -60 -19 q-19 -21 -18 -60 l0 -261 q-1 -46 16 -68 q19 -22 62 -23 ZM304 -31 q-13 0 -18 6 q-6 6 -6 30 l0 108 q-1 16 4 21 q4 4 20 4 l410 0 q22 0 29 -5 q6 -4 6 -20 l0 -108 q0 -28 -3 -32 q-4 -3 -32 -4 l-410 0 Z" /><glyph glyph-name="uni540C" unicode="&#x540c;" d="M208 -132 l0 742 q0 31 31 30 l540 0 q33 0 34 -33 l0 -610 q0 -30 -12 -29 q-19 -4 -46 -1 q-25 -1 -44 -1 q-34 3 -49 -12 q-13 -22 -17 -51 q-3 -27 6 -48 q10 -22 37 -28 q51 -9 113 -11 q63 1 102 19 q45 21 45 99 l0 780 q-1 25 -17 43 q-19 19 -45 18 l-744 0 q-37 0 -53 -19 q-16 -22 -16 -50 l0 -838 q0 -25 20 -39 q18 -12 45 -12 q28 0 49 13 q21 12 21 38 ZM296 581 q-25 0 -39 -19 q-12 -18 -12 -44 q0 -27 13 -48 q12 -19 38 -20 l424 0 q25 0 38 20 q12 18 12 44 q0 27 -13 48 q-12 19 -37 19 l-424 0 ZM703 393 l-381 0 q-49 0 -49 -49 l0 -297 q0 -49 49 -49 l381 0 q49 0 49 49 l0 297 q0 49 -49 49 ZM606 262 q10 0 11 -11 l0 -111 q0 -10 -11 -11 l-187 0 q-10 0 -11 11 l0 111 q0 10 11 11 l187 0 Z" /><glyph glyph-name="uni540D" unicode="&#x540d;" d="M272 -164 l609 0 q49 0 49 49 l0 349 q0 49 -49 49 l-313 0 q48 22 90 47 q85 49 139 105 q73 75 99 144 q22 61 6 100 q-18 36 -70 44 l-353 0 q4 16 -3 30 q-9 19 -32 35 q-22 13 -49 14 q-22 1 -37 -22 q-42 -67 -95 -117 q-54 -52 -127 -86 q-25 -7 -32 -31 q-6 -21 2 -47 q7 -25 26 -43 q16 -16 43 -8 q82 31 168 109 q16 16 29 31 l358 0 q12 0 18 -3 q4 -4 1 -13 q-12 -33 -74 -87 q-39 -36 -98 -65 q-22 -10 -47 -23 q-79 70 -146 106 q-24 13 -46 1 q-19 -10 -34 -34 q-13 -25 -13 -51 q1 -25 25 -38 q27 -13 60 -40 q-9 -1 -17 -4 q-106 -30 -278 -55 q-27 -1 -39 -22 q-12 -22 -12 -51 q1 -28 15 -46 q13 -21 41 -20 q67 10 137 27 l0 -285 q0 -49 49 -49 ZM780 148 q10 0 11 -11 l0 -155 q0 -10 -11 -11 l-407 0 q-10 0 -11 11 l0 155 q0 10 11 11 l407 0 Z" /><glyph glyph-name="uni540E" unicode="&#x540e;" d="M294 626 q265 -1 413 3 q153 7 226 19 q28 3 39 27 q10 22 7 51 q-3 30 -21 51 q-15 19 -44 16 q-147 -16 -316 -26 q-153 -6 -375 -6 q-55 0 -73 -23 q-22 -27 -21 -83 l0 -379 q-4 -61 -11 -113 q-12 -60 -29 -118 q-24 -58 -55 -114 q-18 -21 -13 -46 q7 -28 29 -44 q22 -19 50 -21 q25 0 41 18 q42 60 71 139 q22 66 36 147 q10 69 16 152 l0 140 l648 0 q25 0 39 21 q12 18 12 45 q0 28 -13 49 q-12 19 -38 20 l-648 0 l0 53 q1 13 7 19 q7 6 23 3 ZM881 339 l-545 0 q-49 0 -49 -49 l0 -393 q0 -49 49 -49 l545 0 q49 0 49 49 l0 393 q0 49 -49 49 ZM780 204 q10 0 11 -11 l0 -199 q0 -10 -11 -11 l-343 0 q-10 0 -11 11 l0 199 q0 10 11 11 l343 0 Z" /><glyph glyph-name="uni5411" unicode="&#x5411;" d="M446 777 q-21 -43 -69 -106 l-244 0 q-31 1 -51 -20 q-16 -24 -17 -47 l0 -736 q0 -25 20 -39 q18 -12 45 -12 q28 0 49 13 q21 12 21 38 l0 635 q0 19 7 28 q9 6 27 5 l553 0 q19 1 26 -8 q7 -7 8 -26 l-1 -493 q0 -40 -28 -39 q-28 1 -53 2 q-16 0 -49 1 q-22 4 -38 -19 q-16 -27 -16 -57 q1 -28 14 -48 q15 -22 43 -21 q78 -9 140 -2 q58 7 81 19 q42 24 42 99 l0 655 q-1 28 -23 51 q-25 22 -50 21 l-335 0 q13 22 24 44 q12 25 -2 46 q-10 19 -36 32 q-25 13 -52 10 q-24 -1 -36 -26 ZM687 463 l-365 0 q-49 0 -49 -49 l0 -329 q0 -49 49 -49 l365 0 q49 0 49 49 l0 329 q0 49 -49 49 ZM590 328 q10 0 11 -11 l0 -135 q0 -10 -11 -11 l-171 0 q-10 0 -11 11 l0 135 q0 10 11 11 l171 0 Z" /></font>
</defs>
</svg>
